<svg xmlns="http://www.w3.org/2000/svg" xmlns:xlink="http://www.w3.org/1999/xlink" version="1.1" id="Layer_3" x="0px" y="0px" viewBox="0 0 100 100" enable-background="new 0 0 100 100" xml:space="preserve" height="100px" width="100px">
<path d="M91.5,79.4l0-57.2c0-5.8-4.7-10.5-10.5-10.5l-61.8,0c-5.8,0-10.5,4.7-10.5,10.5l0,57.2H5l0,9.1h3.6v0h3.6v0l13,0l26.2,4  c0.1,0,0.1,0,0.2,0c0.3,0,12.3-2.4,20.4-4l23.1,0v-9.1H91.5z M19.2,15.3l61.8,0c3.8,0,6.9,3.1,6.9,6.9l-28.1,0v-2.6l-17.2,0v2.6  l-30.3,0C12.2,18.4,15.4,15.3,19.2,15.3z M50.2,89.3l-28.1-4.3l0-31l28.1-4.3L50.2,89.3z M87.9,79.4l-7.6,0l0-26  c0-0.7-0.5-1.2-1.1-1.4c0,0-27.4-5.5-27.8-5.4l-31,4.7c-0.7,0.1-1.3,0.7-1.3,1.5l0,26.6h-7l0-50.1l30.3,0v4.2h2.7v0.7  c0,0.8,0.7,1.5,1.5,1.5h1.8l0.8,4.6H53l0.8-4.6h2c0.8,0,1.5-0.7,1.5-1.5v-0.7l2.5,0v-4.2l28.1,0L87.9,79.4z"/>
</svg>