<svg xmlns="http://www.w3.org/2000/svg" xmlns:xlink="http://www.w3.org/1999/xlink" version="1.1" id="Livello_3" x="0px" y="0px" viewBox="0 0 100 100" enable-background="new 0 0 100 100" xml:space="preserve" height="100px" width="100px">
<g>
	<path d="M90,83H15c-1.1,0-2-0.9-2-2v-1c0-1.1,0.9-2,2-2c0.7,0,1.4,0.4,1.7,1h72.4l1.8-1.8V37.8l-2.4-2.4C88.2,35,88,34.5,88,34V22   H17v6c0,1.1-0.9,2-2,2s-2-0.9-2-2v-8c0-1.1,0.9-2,2-2h75c1.1,0,2,0.9,2,2v13.2l2.4,2.4C94.8,36,95,36.5,95,37v41   c0,0.5-0.2,1-0.6,1.4l-3,3C91,82.8,90.5,83,90,83z"/>
</g>
<g>
	<path d="M15,65c-1.1,0-2-0.9-2-2V48c0-1.1,0.9-2,2-2s2,0.9,2,2v15C17,64.1,16.1,65,15,65z"/>
</g>
<path d="M22.5,45h-16C5.7,45,5,44.3,5,43.5v-11C5,31.7,5.7,31,6.5,31h16c0.8,0,1.5,0.7,1.5,1.5v11C24,44.3,23.3,45,22.5,45z"/>
<path d="M25.5,77h-14c-0.8,0-1.5-0.7-1.5-1.5v-8c0-0.8,0.7-1.5,1.5-1.5h14c0.8,0,1.5,0.7,1.5,1.5v8C27,76.3,26.3,77,25.5,77z"/>
<path d="M49,56c-0.6,0-1,0.4-1,1v1h2v-1C50,56.4,49.6,56,49,56z"/>
<path d="M46,56c-0.6,0-1,0.4-1,1v1h2v-1C47,56.4,46.6,56,46,56z"/>
<path d="M52,56c-0.6,0-1,0.4-1,1v1h2v-1C53,56.4,52.6,56,52,56z"/>
<path d="M55,56c-0.6,0-1,0.4-1,1v1h2v-1C56,56.4,55.6,56,55,56z"/>
<path d="M58,56c-0.6,0-1,0.4-1,1v1h2v-1C59,56.4,58.6,56,58,56z"/>
<path d="M61,56c-0.6,0-1,0.4-1,1v1h2v-1C62,56.4,61.6,56,61,56z"/>
<path d="M64,56c-0.6,0-1,0.4-1,1v1h2v-1C65,56.4,64.6,56,64,56z"/>
<path d="M67,56c-0.6,0-1,0.4-1,1v1h2v-1C68,56.4,67.6,56,67,56z"/>
<path d="M70,56c-0.6,0-1,0.4-1,1v1h2v-1C71,56.4,70.6,56,70,56z"/>
<path d="M73,56c-0.6,0-1,0.4-1,1v1h2v-1C74,56.4,73.6,56,73,56z"/>
<path d="M76,56c-0.6,0-1,0.4-1,1v1h2v-1C77,56.4,76.6,56,76,56z"/>
<path d="M79,56c-0.6,0-1,0.4-1,1v1h2v-1C80,56.4,79.6,56,79,56z"/>
<path d="M82,56c-0.6,0-1,0.4-1,1v1h2v-1C83,56.4,82.6,56,82,56z"/>
<path d="M85,56c-0.6,0-1,0.4-1,1v1h2v-1C86,56.4,85.6,56,85,56z"/>
<path d="M82,71c0.6,0,1-0.4,1-1v-1h-2v1C81,70.6,81.4,71,82,71z"/>
<path d="M85,71c0.6,0,1-0.4,1-1v-1h-2v1C84,70.6,84.4,71,85,71z"/>
<path d="M79,71c0.6,0,1-0.4,1-1v-1h-2v1C78,70.6,78.4,71,79,71z"/>
<path d="M76,71c0.6,0,1-0.4,1-1v-1h-2v1C75,70.6,75.4,71,76,71z"/>
<path d="M73,71c0.6,0,1-0.4,1-1v-1h-2v1C72,70.6,72.4,71,73,71z"/>
<path d="M70,71c0.6,0,1-0.4,1-1v-1h-2v1C69,70.6,69.4,71,70,71z"/>
<path d="M67,71c0.6,0,1-0.4,1-1v-1h-2v1C66,70.6,66.4,71,67,71z"/>
<path d="M64,71c0.6,0,1-0.4,1-1v-1h-2v1C63,70.6,63.4,71,64,71z"/>
<path d="M61,71c0.6,0,1-0.4,1-1v-1h-2v1C60,70.6,60.4,71,61,71z"/>
<path d="M58,71c0.6,0,1-0.4,1-1v-1h-2v1C57,70.6,57.4,71,58,71z"/>
<path d="M55,71c0.6,0,1-0.4,1-1v-1h-2v1C54,70.6,54.4,71,55,71z"/>
<path d="M52,71c0.6,0,1-0.4,1-1v-1h-2v1C51,70.6,51.4,71,52,71z"/>
<path d="M49,71c0.6,0,1-0.4,1-1v-1h-2v1C48,70.6,48.4,71,49,71z"/>
<path d="M46,71c0.6,0,1-0.4,1-1v-1h-2v1C45,70.6,45.4,71,46,71z"/>
<path d="M87,59H44c-0.6,0-1,0.4-1,1v7c0,0.6,0.4,1,1,1h43c0.6,0,1-0.4,1-1v-7C88,59.4,87.6,59,87,59z M87,65.5c-1.1,0-2-0.9-2-2  c0-1.1,0.9-2,2-2V65.5z"/>
<path fill-rule="evenodd" clip-rule="evenodd" d="M35.2,38.1c0,8.7,12,12,17.9,3.1c6.1,9.2,17.6,5.3,17.6-3.1S59.3,25.6,53.1,35  C47.3,25.7,35.2,29.4,35.2,38.1L35.2,38.1z M38.4,38.1c0-6.3,8.9-8.3,13,0C47.2,46,38.4,44.4,38.4,38.1L38.4,38.1z M54.9,38.1  c3.7-8.4,12.9-6.1,12.8,0C67.7,44.2,58.5,46.1,54.9,38.1z"/>
<rect x="41.7" y="37.2" fill-rule="evenodd" clip-rule="evenodd" width="5.3" height="1.7"/>
<polygon fill-rule="evenodd" clip-rule="evenodd" points="60.9,38.9 59.1,38.9 59.1,37.1 60.9,37.1 60.9,35.3 62.7,35.3 62.7,37.1   64.4,37.1 64.4,38.9 62.7,38.9 62.7,40.6 60.9,40.6 "/>
</svg>