<svg xmlns="http://www.w3.org/2000/svg" xmlns:xlink="http://www.w3.org/1999/xlink" version="1.1" id="Layer_1" x="0px" y="0px" width="100px" height="100px" viewBox="0 0 100 100" enable-background="new 0 0 100 100" xml:space="preserve">
<path fill="#000000" d="M73.121,56.116c-7.779,0-14.11,6.33-14.11,14.11s6.331,14.11,14.11,14.11c7.78,0,14.111-6.33,14.111-14.11  S80.901,56.116,73.121,56.116z M73.121,81.914c-6.455,0-11.688-5.232-11.688-11.688s5.232-11.688,11.688-11.688  s11.688,5.232,11.688,11.688S79.576,81.914,73.121,81.914z"/>
<g>
	<g>
		<circle fill="#000000" cx="73.122" cy="70.227" r="4.675"/>
	</g>
</g>
<path fill="#000000" d="M78.134,24.412c-4.085,0-7.397,3.312-7.397,7.398c0,4.086,3.312,7.398,7.397,7.398  c4.087,0,7.398-3.312,7.398-7.398C85.532,27.724,82.221,24.412,78.134,24.412z M78.134,37.8c-3.309,0-5.989-2.681-5.989-5.989  s2.681-5.989,5.989-5.989c3.31,0,5.99,2.681,5.99,5.989S81.443,37.8,78.134,37.8z"/>
<g>
	<g>
		<circle fill="#000000" cx="78.134" cy="31.811" r="2.372"/>
	</g>
</g>
<path fill="#000000" d="M90.923,12.64H55.32c-0.38,0-0.687,0.307-0.687,0.686v78.953c0,0.378,0.307,0.686,0.687,0.686h35.603  c0.379,0,0.686-0.308,0.686-0.686V13.325C91.608,12.946,91.302,12.64,90.923,12.64z M78.134,23.518c4.58,0,8.294,3.714,8.294,8.293  s-3.714,8.293-8.294,8.293c-4.579,0-8.292-3.714-8.292-8.293S73.555,23.518,78.134,23.518z M63.298,42.341  c2.378,0,4.306,1.928,4.306,4.305s-1.928,4.305-4.306,4.305c-2.377,0-4.304-1.928-4.304-4.305S60.921,42.341,63.298,42.341z   M73.121,85.815c-8.609,0-15.588-6.979-15.588-15.589s6.979-15.589,15.588-15.589S88.71,61.617,88.71,70.227  S81.73,85.815,73.121,85.815z"/>
<path fill="#000000" d="M63.298,42.924c-2.055,0-3.721,1.666-3.721,3.722s1.666,3.722,3.721,3.722c2.057,0,3.722-1.666,3.722-3.722  S65.354,42.924,63.298,42.924z M63.298,49.456c-1.553,0-2.811-1.257-2.811-2.811c0-1.553,1.258-2.811,2.811-2.811  c1.555,0,2.812,1.258,2.812,2.811C66.109,48.199,64.853,49.456,63.298,49.456z"/>
<g>
	<g>
		<circle fill="#000000" cx="63.298" cy="46.646" r="1.043"/>
	</g>
</g>
<path fill="#000000" d="M14.942,70.227c0,7.78,6.331,14.11,14.111,14.11c7.779,0,14.11-6.33,14.11-14.11s-6.331-14.11-14.11-14.11  C21.273,56.116,14.942,62.446,14.942,70.227z M17.366,70.227c0-6.455,5.232-11.688,11.688-11.688s11.688,5.232,11.688,11.688  s-5.232,11.688-11.688,11.688S17.366,76.682,17.366,70.227z"/>
<g>
	<g>
		<circle fill="#000000" cx="29.053" cy="70.227" r="4.675"/>
	</g>
</g>
<path fill="#000000" d="M16.643,31.811c0,4.086,3.312,7.398,7.398,7.398c4.085,0,7.397-3.312,7.397-7.398  c0-4.087-3.312-7.398-7.397-7.398C19.954,24.412,16.643,27.724,16.643,31.811z M18.051,31.811c0-3.309,2.681-5.989,5.99-5.989  c3.309,0,5.989,2.681,5.989,5.989S27.35,37.8,24.041,37.8C20.731,37.8,18.051,35.119,18.051,31.811z"/>
<g>
	<g>
		<circle fill="#000000" cx="24.041" cy="31.811" r="2.372"/>
	</g>
</g>
<path fill="#000000" d="M10.566,13.325v78.953c0,0.378,0.307,0.686,0.686,0.686h35.603c0.38,0,0.687-0.308,0.687-0.686V13.325  c0-0.379-0.307-0.686-0.687-0.686H11.252C10.873,12.64,10.566,12.946,10.566,13.325z M32.333,31.811  c0,4.579-3.713,8.293-8.292,8.293c-4.58,0-8.294-3.714-8.294-8.293s3.714-8.293,8.294-8.293  C28.62,23.518,32.333,27.231,32.333,31.811z M43.181,46.646c0,2.377-1.927,4.305-4.304,4.305c-2.378,0-4.306-1.928-4.306-4.305  s1.928-4.305,4.306-4.305C41.254,42.341,43.181,44.269,43.181,46.646z M13.465,70.227c0-8.609,6.979-15.589,15.589-15.589  s15.588,6.979,15.588,15.589s-6.979,15.589-15.588,15.589S13.465,78.836,13.465,70.227z"/>
<path fill="#000000" d="M35.155,46.646c0,2.056,1.665,3.722,3.722,3.722c2.055,0,3.721-1.666,3.721-3.722s-1.666-3.722-3.721-3.722  C36.82,42.924,35.155,44.59,35.155,46.646z M36.065,46.646c0-1.553,1.257-2.811,2.812-2.811c1.553,0,2.811,1.258,2.811,2.811  c0,1.554-1.258,2.811-2.811,2.811C37.322,49.456,36.065,48.199,36.065,46.646z"/>
<g>
	<g>
		<circle fill="#000000" cx="38.876" cy="46.646" r="1.043"/>
	</g>
</g>
</svg>