<svg xmlns="http://www.w3.org/2000/svg" xmlns:xlink="http://www.w3.org/1999/xlink" version="1.1" id="Layer_1" x="0px" y="0px" width="56.626px" height="100px" viewBox="0 0 56.626 100" enable-background="new 0 0 56.626 100" xml:space="preserve">
<path d="M26.341,71.348c0.319,0.186,0.737,0.073,0.923-0.249l1.023-1.776c0.188-0.319,0.075-0.737-0.246-0.923L5.874,55.598  c-0.321-0.183-0.735-0.07-0.919,0.249l-1.027,1.776c-0.184,0.319-0.074,0.733,0.248,0.919L26.341,71.348z"/>
<path d="M6.661,72.513c0.321,0.187,0.735,0.073,0.919-0.246l3.45-5.974l-6.055-3.496l-3.447,5.974  c-0.186,0.32-0.074,0.738,0.246,0.92L6.661,72.513z"/>
<path d="M13.001,76.174l4.888,2.822c0.319,0.186,0.733,0.073,0.919-0.246l3.449-5.971l-6.053-3.5l-3.452,5.979  C12.571,75.573,12.679,75.987,13.001,76.174z"/>
<path d="M52.575,90.716h-6.314c6.383-6.097,10.365-14.687,10.365-24.213c0-8.908-3.481-17-9.154-22.998  c-0.707,3.266-2.996,5.942-6.023,7.188c3.669,4.241,5.894,9.766,5.894,15.81c0,13.37-10.841,24.213-24.21,24.213H4.047  C1.824,90.716,0,92.537,0,94.763V100h56.626v-5.237C56.626,92.537,54.803,90.716,52.575,90.716z"/>
<circle cx="37.631" cy="41.381" r="7.291"/>
<path d="M25.102,63.077l7.501-12.986c-3.007-1.743-5.037-4.989-5.037-8.71c0-5.55,4.516-10.067,10.066-10.067  c1.832,0,3.547,0.498,5.028,1.358l5.835-10.107c0.278-0.482,0.334-1.035,0.199-1.536c-0.132-0.5-0.456-0.951-0.938-1.229  l-1.149-0.665L52.876,8.28l0.487,0.284c0.372,0.216,0.852,0.086,1.067-0.284l1.185-2.052c0.212-0.369,0.087-0.848-0.284-1.063  l-8.747-5.061c-0.371-0.215-0.852-0.085-1.065,0.287l-1.185,2.051c-0.215,0.37-0.085,0.849,0.284,1.064l0.487,0.283l-6.271,10.86  l-1.015-0.586c-0.48-0.277-1.034-0.333-1.534-0.197c-0.5,0.134-0.951,0.457-1.23,0.939L11.664,55.32L25.102,63.077z"/>
</svg>