<svg xmlns:x="http://ns.adobe.com/Extensibility/1.0/" xmlns:i="http://ns.adobe.com/AdobeIllustrator/10.0/" xmlns:graph="http://ns.adobe.com/Graphs/1.0/" xmlns="http://www.w3.org/2000/svg" xmlns:xlink="http://www.w3.org/1999/xlink" version="1.1" id="Your_Icon" x="0px" y="0px" width="100px" height="100px" viewBox="0 0 100 100" enable-background="new 0 0 100 100" xml:space="preserve">
<metadata>
	<sfw xmlns="http://ns.adobe.com/SaveForWeb/1.0/">
		<slices/>
		<sliceSourceBounds x="266.84" y="365.563" height="102.628" width="201.82" bottomLeftOrigin="true"/>
	</sfw>
</metadata>
<g>
	<g>
		<line fill="none" stroke="#000000" stroke-miterlimit="10" x1="49.814" y1="28.188" x2="49.814" y2="13.4"/>
		<g>
			<polygon points="52.307,14.13 49.814,9.813 47.32,14.13    "/>
		</g>
	</g>
</g>
<g>
	<g>
		<line fill="none" stroke="#000000" stroke-miterlimit="10" x1="85.553" y1="75.02" x2="73.035" y2="67.791"/>
		<g>
			<polygon points="86.168,72.495 88.66,76.813 83.675,76.813    "/>
		</g>
	</g>
</g>
<g>
	<g>
		<line fill="none" stroke="#000000" stroke-miterlimit="10" x1="14.447" y1="75.02" x2="26.539" y2="68.138"/>
		<g>
			<polygon points="16.325,76.813 11.34,76.813 13.833,72.495    "/>
		</g>
	</g>
</g>
<path fill="#000000" stroke="#FFFFFF" stroke-width="0.5" stroke-linecap="round" stroke-linejoin="round" d="M60.639,35.263"/>
<path fill="#000000" stroke="#FFFFFF" stroke-width="0.5" stroke-linecap="round" stroke-linejoin="round" d="M38.988,72.764"/>
<path fill="#000000" stroke="#FFFFFF" stroke-width="0.5" stroke-linecap="round" stroke-linejoin="round" d="M38.988,35.263"/>
<path fill="#000000" stroke="#FFFFFF" stroke-linecap="round" stroke-linejoin="round" d="M71.465,41.513"/>
<path fill="#000000" stroke="#FFFFFF" stroke-linecap="round" stroke-linejoin="round" d="M49.814,54.014"/>
<line fill="#000000" stroke="#FFFFFF" stroke-linecap="round" stroke-linejoin="round" x1="49.814" y1="79.014" x2="49.814" y2="54.014"/>
<g id="punto_de_control_5_">
	<polygon fill="none" stroke="#000000" stroke-miterlimit="10" points="30.539,68.138 26.539,68.138 26.539,64.138 30.539,64.138     "/>
</g>
<g id="punto_de_control_4_" enable-background="new    ">
	<polygon fill="none" stroke="#000000" stroke-miterlimit="10" points="73.035,68.138 69.035,68.138 69.035,64.138 73.035,64.138     "/>
</g>
<g id="punto_de_control_1_" enable-background="new    ">
	<polygon fill="none" stroke="#000000" stroke-miterlimit="10" points="30.539,44.188 26.539,44.188 26.539,40.188 30.539,40.188     "/>
</g>
<g id="punto_de_control_3_" enable-background="new    ">
	<polygon fill="none" stroke="#000000" stroke-miterlimit="10" points="73.035,44.188 69.035,44.188 69.035,40.188 73.035,40.188     "/>
</g>
<g id="punto_de_control_6_" enable-background="new    ">
	<polygon fill="none" stroke="#000000" stroke-miterlimit="10" points="51.814,32.188 47.814,32.188 47.814,28.188 51.814,28.188     "/>
</g>
<g id="punto_de_control_2_" enable-background="new    ">
	<polygon fill="none" stroke="#000000" stroke-miterlimit="10" points="51.814,55.438 47.814,55.438 47.814,51.438 51.814,51.438     "/>
</g>
<g id="punto_de_control" enable-background="new    ">
	<polygon fill="none" stroke="#000000" stroke-miterlimit="10" points="51.814,80.438 47.814,80.438 47.814,76.438 51.814,76.438     "/>
</g>
<polygon points="39.209,35.708 49.291,41.513 39.209,47.292 30.542,42.305 30.539,40.72 30.539,40.72 "/>
<polygon points="47.814,32.188 51.814,32.188 51.815,30.706 59.875,35.347 49.792,41.125 39.75,35.347 47.814,30.686 "/>
<polyline points="69.035,42.313 60.37,47.279 50.328,41.5 60.37,35.696 69.037,40.686 "/>
<polygon points="49.792,41.824 59.875,47.628 51.814,52.248 51.814,51.438 47.814,51.438 47.819,52.272 39.75,47.628 "/>
<polyline points="70.965,44.187 70.933,53.987 60.907,59.794 60.901,48.196 69.034,43.485 "/>
<polygon points="69.035,67.295 60.907,72.002 60.901,60.404 70.97,54.572 70.939,64.138 69.031,64.138 "/>
<polygon points="51.814,55.438 51.814,53.429 60.36,48.479 60.323,60.102 50.298,65.908 50.293,55.437 "/>
<polygon points="50.313,66.52 60.381,60.688 60.344,72.311 51.814,77.251 51.814,76.438 50.318,76.438 "/>
<polygon points="38.705,48.223 30.543,43.496 30.539,44.188 28.643,44.188 28.674,54.015 38.699,59.821 "/>
<polygon points="38.705,60.432 28.637,54.6 28.667,64.138 30.539,64.138 30.539,67.303 38.699,72.029 "/>
<polygon points="47.815,53.469 39.246,48.506 39.283,60.129 49.309,65.936 49.314,55.438 47.814,55.438 "/>
<polygon points="49.294,66.547 39.226,60.715 39.263,72.338 47.813,77.291 47.814,76.438 49.288,76.438 "/>
</svg>