<?xml version="1.0" encoding="utf-8"?>
<!-- Generator: Adobe Illustrator 16.0.0, SVG Export Plug-In . SVG Version: 6.00 Build 0)  -->
<!DOCTYPE svg PUBLIC "-//W3C//DTD SVG 1.1//EN" "http://www.w3.org/Graphics/SVG/1.1/DTD/svg11.dtd">
<svg version="1.1" id="Layer_1" xmlns="http://www.w3.org/2000/svg" xmlns:xlink="http://www.w3.org/1999/xlink" x="0px" y="0px"
	 width="100px" height="88.751px" viewBox="0 4.867 100 88.751" enable-background="new 0 4.867 100 88.751" xml:space="preserve">
<g id="Your_Icon">
	<path display="none" d="M40.636,88.139c21.068,5.166,42.333-7.717,47.506-28.779c5.166-21.062-7.722-42.328-28.785-47.495
		c-21.062-5.173-42.333,7.709-47.5,28.777C6.691,61.704,19.572,82.97,40.636,88.139z"/>
</g>
<g id="Layer_9">
	<path d="M33.923,93.617H23.51c-7.043,0-12.798-4.2-12.798-14.593V61.835c0-6.204-8.241-6.898-10.712-6.898V43.54
		c2.471,0,10.712-0.695,10.712-6.893V19.358c0-10.391,5.462-14.491,12.798-14.491h10.413v11.392h-4.858
		c-6.048,0-6.458,3.695-6.458,6.394v16.095c-0.085,9.298-5.742,9.991-9.913,10.397v0.19c4.169,0.308,9.828,1.009,9.913,10.307
		v16.186c0,2.7,0.41,6.394,6.458,6.394h4.858V93.617z"/>
	<path d="M66.064,4.867h10.712c6.744,0,12.5,4.206,12.5,14.59v17.19c0,6.197,7.94,6.893,10.724,6.893v11.398
		c-2.783,0-10.724,0.693-10.724,6.899v17.288c0,10.391-5.456,14.493-12.792,14.493h-10.42V82.225h4.861
		c6.055,0,6.449-3.694,6.449-6.394V59.732c0.098-9.294,5.75-9.989,9.924-10.396v-0.19c-4.175-0.308-9.826-1.008-9.924-10.304V22.654
		c0-2.699-0.395-6.394-6.449-6.394h-4.861V4.867z"/>
</g>
</svg>
