<svg xmlns="http://www.w3.org/2000/svg" xmlns:xlink="http://www.w3.org/1999/xlink" version="1.1" id="Layer_1" x="0px" y="0px" width="100px" height="100px" viewBox="0 0 100 100" enable-background="new 0 0 100 100" xml:space="preserve">
<path d="M50,16.89c0.513,0,1.021,0.024,1.523,0.073V0h-3.046v16.963C48.979,16.914,49.487,16.89,50,16.89z"/>
<path d="M33.51,33.379c0-0.479,0.024-0.947,0.063-1.416H16.518v3.047h17.07C33.54,34.473,33.51,33.931,33.51,33.379z"/>
<path d="M62.739,22.905l12.012-12.017L72.603,8.73L60.591,20.742C61.366,21.396,62.089,22.119,62.739,22.905z"/>
<path d="M39.414,20.742L27.402,8.73l-2.158,2.158L37.26,22.905C37.91,22.119,38.632,21.396,39.414,20.742z"/>
<path d="M66.431,31.963c0.039,0.469,0.059,0.938,0.059,1.416c0,0.552-0.029,1.094-0.078,1.631h17.07v-3.047H66.431z"/>
<polygon points="62.456,52.363 37.543,52.363 37.543,56.689 44.917,56.689 44.917,100 47.968,100 47.968,56.689 52.03,56.689   52.03,86.133 55.083,86.133 55.083,56.689 62.456,56.689 "/>
<path d="M50,22.881c-5.195,0-9.404,4.209-9.404,9.404v0.005v18.804h18.808V32.3c0-0.005,0-0.01,0-0.015  C59.403,27.09,55.194,22.881,50,22.881z M53.237,30.464c-0.963,0.171-1.88-0.649-2.901-0.366c-1.475,0.405-0.913,1.396-1.543,2.451  c-0.63,1.069-2.153,1.377-3.242,0.737c-3.398-1.992,0.034-6.367,2.183-7.031c1.704-1.333,5.181-0.4,6.421,1.709  C54.79,29.043,54.481,30.239,53.237,30.464z"/>
</svg>