<svg xmlns="http://www.w3.org/2000/svg" xmlns:xlink="http://www.w3.org/1999/xlink" version="1.1" id="Layer_1" x="0px" y="0px" width="100px" height="100px" viewBox="0 0 100 100" enable-background="new 0 0 100 100" xml:space="preserve">
<path fill="#000000" d="M95.242,16.342H4.76c-2.624,0-4.759,2.136-4.759,4.76v59.268c0,2.623,2.135,4.758,4.759,4.758h71.833  l-3.213-6.381H6.448V22.724h87.105v56.022h-8.06l3.212,6.381h6.536c2.623,0,4.759-2.135,4.759-4.758V21.102  C100.001,18.478,97.865,16.342,95.242,16.342z M3.254,53.055c-1.279,0-2.32-1.04-2.32-2.32c0-1.279,1.041-2.32,2.32-2.32  c1.28,0,2.32,1.041,2.32,2.32C5.575,52.015,4.534,53.055,3.254,53.055z"/>
<rect x="2.735" y="50.216" fill="#000000" width="1.038" height="1.038"/>
<path fill="#000000" d="M3.254,48.975c-0.971,0-1.76,0.789-1.76,1.76s0.79,1.762,1.76,1.762s1.76-0.791,1.76-1.762  S4.225,48.975,3.254,48.975z M4.054,51.327c0,0.114-0.093,0.207-0.207,0.207H2.663c-0.114,0-0.207-0.093-0.207-0.207v-1.185  c0-0.113,0.093-0.207,0.207-0.207h1.184c0.114,0,0.207,0.094,0.207,0.207V51.327z"/>
<path fill="#000000" d="M8.864,73.023h7.792V23.984H8.864V73.023z M15.909,26.084h-0.333l0.333-0.457V26.084z M15.909,25.469  l-0.449,0.615h-0.289l0.737-1.012V25.469z M15.909,24.73v0.184l-0.853,1.17h-0.289l0.986-1.354H15.909z M15.638,24.73l-0.986,1.354  h-0.289l0.986-1.354H15.638z M15.233,24.73l-0.986,1.354h-0.289l0.986-1.354H15.233z M14.83,24.73l-0.986,1.354h-0.289l0.986-1.354  H14.83z M14.425,24.73l-0.986,1.354H13.15l0.986-1.354H14.425z M14.021,24.73l-0.986,1.354h-0.289l0.986-1.354H14.021z   M13.617,24.73l-0.986,1.354h-0.289l0.986-1.354H13.617z M13.212,24.73l-0.986,1.354h-0.289l0.986-1.354H13.212z M12.809,24.73  l-0.986,1.354h-0.289l0.986-1.354H12.809z M12.404,24.73l-0.986,1.354h-0.289l0.986-1.354H12.404z M12,24.73l-0.986,1.354h-0.289  l0.986-1.354H12z M11.596,24.73l-0.986,1.354h-0.289l0.123-0.168c0.259-0.043,0.458-0.268,0.458-0.537  c0-0.028-0.003-0.056-0.007-0.082l0.412-0.566H11.596z M10.324,25.922l-0.119,0.162H9.917l0.17-0.232  C10.158,25.892,10.238,25.916,10.324,25.922z M9.999,25.379c0-0.198,0.161-0.359,0.358-0.359c0.198,0,0.358,0.161,0.358,0.359  c0,0.197-0.161,0.357-0.358,0.357C10.16,25.736,9.999,25.576,9.999,25.379z M11.191,24.73l-0.327,0.45  c-0.031-0.079-0.079-0.147-0.14-0.204l0.179-0.246H11.191z M10.499,24.73h0.289L10.65,24.92c-0.067-0.043-0.145-0.072-0.229-0.082  L10.499,24.73z M9.61,24.73h0.369L9.61,25.236V24.73z M9.61,25.396l0.484-0.665h0.289l-0.077,0.105  c-0.277,0.025-0.494,0.259-0.494,0.543c0,0.04,0.005,0.08,0.013,0.117L9.61,25.791V25.396z M9.61,25.95l0.252-0.346  c0.034,0.075,0.085,0.142,0.148,0.193l-0.209,0.286H9.61V25.95z M9.61,26.551h6.299v45.727H9.61V26.551z"/>
<path fill="#000000" d="M10.437,47.732v0.187v4.272v0.187v4.272v0.187v4.272v0.186v4.459h4.646v-4.459v-0.186v-4.272V56.65v-4.272  v-0.187v-4.272v-0.187v-4.459h-4.646V47.732z M10.624,43.46h4.272v4.272h-4.272V43.46z M10.624,47.919h4.272v4.272h-4.272V47.919z   M10.624,52.378h4.272v4.272h-4.272V52.378z M10.624,56.837h4.272v4.272h-4.272V56.837z M10.624,61.295h4.272v4.273h-4.272V61.295z"/>
<path fill="#000000" d="M10.437,32.004v0.187v4.272v0.187v4.459h4.646v-4.459v-0.187V32.19v-0.187v-4.459h-4.646V32.004z   M10.624,27.731h4.272v4.272h-4.272V27.731z M10.624,32.19h4.272v4.272h-4.272V32.19z M10.624,36.649h4.272v4.272h-4.272V36.649z"/>
<polygon fill="#000000" points="14.272,29.713 11.181,28.289 12.605,31.381 13.027,30.354 13.958,31.447 14.339,31.065   13.245,30.135 "/>
<path fill="#000000" d="M11.115,32.682l1.53,3.322l0.384-0.936l0.677,0.797l0.591-0.592l-0.796-0.677l0.936-0.384L11.115,32.682z   M13.968,35.287l-0.248,0.248l-0.758-0.891l-0.329,0.799l-1.062-2.305l2.304,1.062l-0.799,0.328L13.968,35.287z"/>
<path fill="#000000" d="M57.322,64.082l-1.436,0.195c-0.164,0.021-0.278,0.172-0.256,0.336c0.02,0.148,0.148,0.258,0.295,0.258  c0.014,0,0.027,0,0.041-0.002l1.436-0.195c0.164-0.021,0.278-0.172,0.256-0.336C57.637,64.174,57.486,64.061,57.322,64.082z"/>
<path fill="#000000" d="M50.348,65.027l-1.436,0.195c-0.164,0.023-0.278,0.174-0.256,0.336c0.021,0.15,0.148,0.26,0.296,0.26  c0.013,0,0.027-0.002,0.041-0.004l1.436-0.193c0.164-0.023,0.279-0.174,0.255-0.338C50.662,65.121,50.512,65.006,50.348,65.027z"/>
<path fill="#000000" d="M39.886,66.447l-1.436,0.195c-0.164,0.023-0.278,0.174-0.256,0.336c0.02,0.15,0.148,0.26,0.295,0.26  c0.014,0,0.027-0.002,0.041-0.004l1.436-0.193c0.164-0.023,0.278-0.174,0.256-0.338C40.201,66.541,40.05,66.426,39.886,66.447z"/>
<path fill="#000000" d="M32.912,67.395l-1.436,0.195c-0.164,0.021-0.278,0.172-0.256,0.336c0.021,0.15,0.148,0.258,0.296,0.258  c0.013,0,0.027,0,0.041-0.002l1.436-0.195c0.164-0.021,0.278-0.172,0.256-0.336C33.226,67.486,33.076,67.373,32.912,67.395z"/>
<path fill="#000000" d="M36.399,66.922l-1.436,0.193c-0.164,0.023-0.278,0.174-0.256,0.338c0.021,0.148,0.148,0.258,0.296,0.258  c0.013,0,0.027,0,0.041-0.002l1.436-0.195c0.164-0.021,0.278-0.174,0.256-0.336C36.713,67.014,36.563,66.898,36.399,66.922z"/>
<path fill="#000000" d="M46.861,65.502l-1.436,0.195c-0.164,0.021-0.278,0.172-0.256,0.336c0.021,0.148,0.148,0.258,0.296,0.258  c0.013,0,0.027,0,0.041-0.002l1.436-0.195c0.163-0.021,0.278-0.174,0.256-0.336C47.175,65.594,47.024,65.479,46.861,65.502z"/>
<path fill="#000000" d="M53.835,64.555l-1.436,0.195c-0.163,0.021-0.278,0.172-0.256,0.336c0.021,0.15,0.148,0.258,0.296,0.258  c0.014,0,0.027,0,0.04-0.002l1.437-0.195c0.163-0.021,0.277-0.172,0.256-0.336C54.149,64.646,53.998,64.533,53.835,64.555z"/>
<path fill="#000000" d="M29.425,67.867l-1.436,0.195c-0.164,0.023-0.278,0.174-0.256,0.336c0.021,0.15,0.149,0.26,0.296,0.26  c0.013,0,0.027-0.002,0.041-0.004l1.436-0.193c0.164-0.023,0.278-0.174,0.256-0.338C29.739,67.961,29.588,67.846,29.425,67.867z"/>
<path fill="#000000" d="M24.619,66.029c0.021,0.15,0.149,0.258,0.296,0.258c0.013,0,0.027,0,0.041-0.002  c0.164-0.023,0.278-0.174,0.256-0.336l-0.195-1.438c-0.022-0.162-0.173-0.277-0.336-0.256c-0.163,0.023-0.278,0.174-0.256,0.338  L24.619,66.029z"/>
<path fill="#000000" d="M21.169,38.387c0.164-0.021,0.278-0.172,0.256-0.336l-0.195-1.436c-0.022-0.164-0.173-0.278-0.336-0.256  c-0.164,0.021-0.278,0.172-0.256,0.336l0.195,1.436c0.021,0.15,0.148,0.26,0.296,0.26C21.142,38.391,21.155,38.389,21.169,38.387z"/>
<path fill="#000000" d="M23.535,55.823c0.164-0.022,0.278-0.173,0.256-0.337l-0.195-1.436c-0.022-0.163-0.172-0.277-0.336-0.256  c-0.163,0.022-0.278,0.173-0.256,0.336l0.195,1.437c0.02,0.149,0.148,0.259,0.295,0.259C23.508,55.826,23.521,55.825,23.535,55.823z  "/>
<path fill="#000000" d="M21.642,41.875c0.164-0.023,0.278-0.174,0.256-0.337l-0.195-1.436c-0.022-0.163-0.172-0.278-0.336-0.256  c-0.164,0.022-0.278,0.173-0.256,0.336l0.195,1.437c0.021,0.149,0.148,0.258,0.296,0.258C21.615,41.877,21.628,41.877,21.642,41.875  z"/>
<path fill="#000000" d="M24.738,62.461l-0.195-1.436c-0.022-0.164-0.172-0.277-0.336-0.256c-0.164,0.021-0.278,0.172-0.256,0.336  l0.195,1.436c0.021,0.15,0.148,0.26,0.296,0.26c0.013,0,0.027-0.002,0.041-0.004C24.646,62.775,24.76,62.625,24.738,62.461z"/>
<path fill="#000000" d="M21.84,43.334c-0.164,0.021-0.278,0.172-0.256,0.336l0.195,1.436c0.02,0.15,0.148,0.259,0.295,0.259  c0.014,0,0.027-0.001,0.041-0.003c0.164-0.021,0.278-0.172,0.256-0.336l-0.195-1.436C22.154,43.426,22.003,43.311,21.84,43.334z"/>
<path fill="#000000" d="M23.968,59.312c0.014,0,0.027,0,0.041-0.002c0.163-0.021,0.278-0.172,0.256-0.336l-0.195-1.436  c-0.022-0.164-0.172-0.279-0.336-0.257s-0.278,0.173-0.256,0.337l0.195,1.436C23.692,59.205,23.821,59.312,23.968,59.312z"/>
<path fill="#000000" d="M22.058,47.157l0.195,1.436c0.021,0.149,0.148,0.259,0.295,0.259c0.014,0,0.027-0.001,0.041-0.003  c0.163-0.022,0.278-0.173,0.256-0.336l-0.195-1.437c-0.022-0.163-0.172-0.277-0.336-0.256C22.15,46.844,22.035,46.994,22.058,47.157  z"/>
<path fill="#000000" d="M51.201,30.054c0.014,0,0.027-0.001,0.041-0.003l1.436-0.195c0.163-0.021,0.277-0.172,0.256-0.336  c-0.022-0.163-0.174-0.278-0.336-0.256l-1.437,0.195c-0.163,0.021-0.278,0.172-0.256,0.336  C50.926,29.945,51.054,30.054,51.201,30.054z"/>
<path fill="#000000" d="M40.739,31.474c0.014,0,0.027-0.001,0.041-0.003l1.436-0.195c0.164-0.021,0.278-0.172,0.256-0.336  s-0.173-0.278-0.336-0.256L40.7,30.879c-0.164,0.021-0.278,0.172-0.256,0.336C40.464,31.365,40.592,31.474,40.739,31.474z"/>
<path fill="#000000" d="M26.791,33.367c0.013,0,0.027-0.002,0.041-0.004l1.436-0.194c0.164-0.022,0.278-0.173,0.256-0.337  c-0.022-0.162-0.172-0.277-0.336-0.256l-1.436,0.195c-0.163,0.022-0.278,0.173-0.256,0.336  C26.515,33.258,26.644,33.367,26.791,33.367z"/>
<path fill="#000000" d="M44.227,31c0.013,0,0.027,0,0.041-0.002l1.436-0.195c0.164-0.022,0.278-0.173,0.256-0.336  c-0.022-0.164-0.173-0.279-0.336-0.256l-1.436,0.194c-0.164,0.022-0.278,0.173-0.256,0.337C43.951,30.892,44.079,31,44.227,31z"/>
<path fill="#000000" d="M33.765,32.42c0.013,0,0.027-0.001,0.041-0.002l1.436-0.195c0.164-0.022,0.278-0.173,0.256-0.336  c-0.022-0.164-0.172-0.279-0.336-0.256l-1.436,0.194c-0.164,0.022-0.278,0.173-0.256,0.337C33.49,32.311,33.618,32.42,33.765,32.42z  "/>
<path fill="#000000" d="M23.303,33.84c0.014,0,0.027-0.001,0.041-0.003l1.436-0.194c0.164-0.022,0.278-0.173,0.256-0.336  c-0.022-0.164-0.173-0.279-0.336-0.256l-1.436,0.194c-0.164,0.022-0.278,0.173-0.256,0.336C23.028,33.73,23.156,33.84,23.303,33.84z  "/>
<path fill="#000000" d="M30.278,32.894c0.013,0,0.027-0.001,0.041-0.003l1.436-0.195c0.163-0.021,0.278-0.172,0.256-0.336  c-0.022-0.164-0.173-0.279-0.336-0.256l-1.436,0.195c-0.164,0.021-0.278,0.172-0.256,0.336  C30.002,32.785,30.13,32.894,30.278,32.894z"/>
<path fill="#000000" d="M47.714,30.527c0.013,0,0.027-0.002,0.041-0.004l1.436-0.194c0.163-0.022,0.278-0.173,0.256-0.336  c-0.022-0.163-0.173-0.278-0.336-0.256l-1.436,0.194c-0.164,0.022-0.278,0.173-0.256,0.336  C47.438,30.418,47.566,30.527,47.714,30.527z"/>
<path fill="#000000" d="M58.354,51.098c0.163-0.021,0.277-0.172,0.256-0.336l-0.195-1.436c-0.021-0.164-0.173-0.279-0.336-0.256  c-0.164,0.021-0.278,0.172-0.256,0.336l0.194,1.436c0.021,0.15,0.148,0.259,0.296,0.259C58.326,51.101,58.34,51.1,58.354,51.098z"/>
<path fill="#000000" d="M56.047,31.89c-0.021-0.163-0.172-0.278-0.336-0.256c-0.163,0.022-0.277,0.173-0.256,0.337l0.195,1.436  c0.021,0.149,0.148,0.258,0.295,0.258c0.014,0,0.027,0,0.041-0.002c0.164-0.022,0.278-0.173,0.256-0.336L56.047,31.89z"/>
<path fill="#000000" d="M58.785,54.588c0.014,0,0.027-0.001,0.041-0.003c0.164-0.022,0.278-0.173,0.256-0.337l-0.195-1.436  c-0.021-0.163-0.172-0.277-0.336-0.256c-0.163,0.022-0.277,0.173-0.256,0.336l0.195,1.437C58.51,54.479,58.639,54.588,58.785,54.588  z"/>
<path fill="#000000" d="M59.242,59.867l0.194,1.436c0.021,0.15,0.148,0.26,0.296,0.26c0.014,0,0.027-0.002,0.041-0.004  c0.163-0.021,0.277-0.172,0.256-0.336l-0.195-1.436c-0.022-0.164-0.172-0.277-0.336-0.256C59.334,59.555,59.22,59.705,59.242,59.867  z"/>
<path fill="#000000" d="M55.929,35.457l0.194,1.436c0.021,0.15,0.148,0.26,0.297,0.26c0.013,0,0.026-0.002,0.04-0.004  c0.163-0.021,0.278-0.172,0.256-0.336l-0.194-1.436c-0.023-0.164-0.174-0.278-0.337-0.256  C56.021,35.143,55.906,35.294,55.929,35.457z"/>
<path fill="#000000" d="M56.875,42.432l0.195,1.436c0.02,0.15,0.148,0.259,0.295,0.259c0.014,0,0.027-0.001,0.041-0.003  c0.164-0.021,0.278-0.172,0.256-0.336l-0.195-1.436c-0.021-0.164-0.172-0.279-0.336-0.256  C56.968,42.117,56.854,42.268,56.875,42.432z"/>
<path fill="#000000" d="M56.658,38.608c-0.164,0.022-0.278,0.173-0.256,0.336l0.194,1.437c0.021,0.149,0.148,0.258,0.296,0.258  c0.014,0,0.027,0,0.041-0.002c0.163-0.022,0.277-0.174,0.256-0.337l-0.195-1.436C56.972,38.701,56.822,38.586,56.658,38.608z"/>
<path fill="#000000" d="M59.024,56.044c-0.163,0.022-0.278,0.173-0.256,0.337l0.194,1.436c0.021,0.15,0.148,0.258,0.296,0.258  c0.014,0,0.026,0,0.04-0.002c0.164-0.021,0.279-0.172,0.256-0.336L59.36,56.3C59.338,56.137,59.188,56.021,59.024,56.044z"/>
<path fill="#000000" d="M21.862,32.294l-2.986,0.405l0.405,2.986l2.986-0.405L21.862,32.294z M19.857,34.93l-0.225-1.654  l1.655-0.225l0.224,1.654L19.857,34.93z"/>
<path fill="#000000" d="M57.086,30.555l-0.406-2.986l-2.986,0.405L54.1,30.96L57.086,30.555z M56.104,28.324l0.225,1.654  l-1.654,0.225l-0.225-1.654L56.104,28.324z"/>
<path fill="#000000" d="M23.591,67.441l0.405,2.984l2.986-0.404l-0.405-2.986L23.591,67.441z M24.572,69.67l-0.225-1.654  l1.654-0.225l0.225,1.654L24.572,69.67z"/>
<path fill="#000000" d="M58.409,62.715l0.405,2.986l2.986-0.406l-0.406-2.984L58.409,62.715z M59.39,64.945l-0.225-1.654  l1.655-0.225l0.225,1.654L59.39,64.945z"/>
<path fill="#000000" d="M23.983,49.931l-2.451,0.333l0.333,2.45l2.451-0.333L23.983,49.931z M22.441,51.957l-0.152-1.119  l1.119-0.151l0.151,1.119L22.441,51.957z"/>
<path fill="#000000" d="M56.684,47.988l2.45-0.332l-0.333-2.451l-2.45,0.332L56.684,47.988z M58.226,45.961l0.151,1.119  l-1.119,0.152l-0.15-1.119L58.226,45.961z"/>
<path fill="#000000" d="M39.362,32.609l-0.333-2.451l-2.45,0.334l0.333,2.449L39.362,32.609z M38.454,30.915l0.152,1.119  l-1.119,0.151l-0.152-1.119L38.454,30.915z"/>
<path fill="#000000" d="M41.304,65.309l0.333,2.451l2.451-0.332l-0.333-2.451L41.304,65.309z M42.212,67.004l-0.152-1.119  l1.119-0.152l0.152,1.119L42.212,67.004z"/>
<path fill="#000000" d="M12.76,44.264c-0.733,0-1.33,0.596-1.33,1.33c0,0.732,0.597,1.33,1.33,1.33s1.33-0.598,1.33-1.33  C14.09,44.859,13.493,44.264,12.76,44.264z M12.76,46.457c-0.476,0-0.863-0.388-0.863-0.863c0-0.477,0.387-0.863,0.863-0.863  s0.863,0.387,0.863,0.863C13.623,46.069,13.236,46.457,12.76,46.457z"/>
<path fill="#000000" d="M11.445,51.369h2.628V48.74h-2.628V51.369z M11.912,49.207h1.695v1.695h-1.695V49.207z"/>
<path fill="#000000" d="M13.28,58.521c0.055-0.057,0.058-0.209,0.022-0.291c-0.167-0.18-0.503,0.002-0.358,0.268  C12.999,58.576,13.202,58.592,13.28,58.521z"/>
<path fill="#000000" d="M12.585,58.297c-0.029-0.104-0.146-0.131-0.247-0.09c-0.094,0.039-0.163,0.061-0.112,0.225  C12.298,58.658,12.652,58.531,12.585,58.297z"/>
<path fill="#000000" d="M11.824,58.387c0.01-0.082-0.096-0.219-0.202-0.135C11.385,58.402,11.791,58.652,11.824,58.387z"/>
<path fill="#000000" d="M13.257,58.744c0.024,0.322,0.495,0.246,0.448-0.066c-0.017-0.113-0.09-0.219-0.291-0.156  C13.284,58.561,13.248,58.613,13.257,58.744z"/>
<path fill="#000000" d="M12.563,58.744c0.019,0.234,0.427,0.242,0.403-0.045c-0.011-0.135-0.125-0.189-0.247-0.156  C12.574,58.582,12.557,58.674,12.563,58.744z"/>
<path fill="#000000" d="M12.205,58.699c-0.014-0.113-0.109-0.168-0.224-0.111C11.655,58.748,12.252,59.086,12.205,58.699z"/>
<path fill="#000000" d="M13.302,58.945c-0.167-0.178-0.503,0.004-0.358,0.27c0.055,0.078,0.258,0.094,0.336,0.023  C13.334,59.18,13.338,59.029,13.302,58.945z"/>
<path fill="#000000" d="M12.585,59.014c-0.029-0.104-0.146-0.131-0.247-0.09c-0.094,0.039-0.163,0.061-0.112,0.225  C12.298,59.375,12.652,59.248,12.585,59.014z"/>
<path fill="#000000" d="M11.824,59.104c0.01-0.082-0.096-0.219-0.202-0.135C11.385,59.119,11.791,59.369,11.824,59.104z"/>
<path fill="#000000" d="M13.414,59.238c-0.13,0.039-0.167,0.092-0.157,0.223c0.024,0.322,0.495,0.246,0.448-0.066  C13.688,59.281,13.615,59.176,13.414,59.238z"/>
<path fill="#000000" d="M12.72,59.26c-0.146,0.039-0.163,0.129-0.157,0.201c0.019,0.232,0.427,0.242,0.403-0.045  C12.955,59.281,12.842,59.227,12.72,59.26z"/>
<path fill="#000000" d="M12.205,59.416c-0.014-0.113-0.109-0.168-0.224-0.111C11.655,59.465,12.252,59.803,12.205,59.416z"/>
<path fill="#000000" d="M11.346,60.061h2.827v-2.174h-2.827V60.061z M11.533,58.072h0.428c-0.02,0.004-0.036,0.01-0.047,0.023  c0.05,0.088,0.244,0.092,0.269-0.023c-0.03,0.006-0.068,0.004-0.106,0h0.106h0.471c-0.026,0.004-0.05,0.01-0.067,0.023  c0.062,0.139,0.32,0.141,0.358-0.023c-0.042,0.006-0.09,0.004-0.14,0h0.14h0.336c0.008,0.205,0.395,0.205,0.403,0h0.304v0.107  c-0.497-0.289-0.475,0.67,0,0.369v0.074c-0.003-0.004-0.007-0.01-0.013-0.014c-0.023,0.059-0.042,0.178,0.013,0.217v0.07  c-0.497-0.289-0.475,0.67,0,0.369v0.074c-0.003-0.004-0.007-0.01-0.013-0.014c-0.023,0.059-0.042,0.178,0.013,0.217v0.068  c-0.167-0.148-0.457,0.039-0.375,0.262h-0.286c0.009-0.117-0.013-0.201-0.068-0.254c-0.195-0.076-0.383,0.016-0.338,0.254h-0.36  c0.01-0.002,0.019-0.006,0.026-0.008c0.078-0.324-0.437-0.324-0.358,0c0.007,0.002,0.017,0.006,0.026,0.008h-0.448  c0.007-0.002,0.014-0.006,0.019-0.008c0.075-0.268-0.343-0.268-0.269,0c0.005,0.002,0.012,0.006,0.019,0.008h-0.042V58.072z"/>
<path fill="#000000" d="M12.14,53.68c-0.22-0.102-0.641-0.146-1.099,0.592c0,0,0.288-0.174,0.54-0.033l-0.122,0.121l1.796,1.796  l1.487-1.487l-1.796-1.795L12.14,53.68z M14.215,54.668l-0.959,0.959l-0.916-0.916l0.959-0.959L14.215,54.668z M12.165,54.537  l-0.177-0.178l0.959-0.959l0.177,0.177L12.165,54.537z"/>
<path fill="#000000" d="M13.27,63.49c0.215-0.408,0.151-0.924-0.191-1.266c-0.204-0.205-0.475-0.316-0.763-0.316  s-0.559,0.111-0.763,0.316c-0.204,0.203-0.316,0.475-0.316,0.762c0,0.289,0.112,0.561,0.316,0.764  c0.204,0.203,0.475,0.316,0.763,0.316c0.178,0,0.35-0.043,0.503-0.125l1.041,1.041c0.062,0.062,0.144,0.094,0.226,0.094  s0.164-0.031,0.226-0.094c0.125-0.125,0.125-0.326,0-0.451L13.27,63.49z M12.796,63.469c-0.128,0.127-0.299,0.199-0.481,0.199  s-0.353-0.072-0.481-0.199c-0.129-0.129-0.199-0.301-0.199-0.482s0.07-0.352,0.199-0.48c0.128-0.129,0.299-0.199,0.481-0.199  s0.353,0.07,0.481,0.199C13.062,62.771,13.062,63.203,12.796,63.469z"/>
<path fill="#000000" d="M13.984,66.766H10.53v3.453h1.005v1.006h3.454V67.77h-1.005V66.766z M14.604,68.156v2.682h-2.683v-0.619  h2.063v-2.062H14.604z"/>
<path fill="#000000" d="M72.473,57.111l-1.475-1.057l-0.736-0.527l-2.633-1.885c-0.117-0.07-0.248-0.115-0.386-0.129  c-0.502-0.051-0.917,0.333-0.935,0.859l-0.054,3.172l-0.046,2.715c-0.064,0.523,0.012,1.047,0.252,1.521l17.428,34.621  c0.781,1.553,3,2.014,4.955,1.031c1.955-0.984,2.906-3.041,2.125-4.596L73.541,58.217C73.303,57.744,72.93,57.373,72.473,57.111z"/>
<polygon fill="#000000" points="44.794,42.827 38.167,33 34.399,44.238 23.006,47.504 32.528,54.561 32.114,66.406 41.768,59.529   52.904,63.584 49.349,52.277 56.646,42.938 "/>
<path fill="#000000" d="M70.776,49.58l13.722-20.398c-0.027-0.018-0.057-0.033-0.085-0.051L70.698,49.52  C70.725,49.54,70.75,49.561,70.776,49.58z"/>
<path fill="#000000" d="M70.441,49.312l13.682-20.341c-0.029-0.016-0.059-0.03-0.088-0.046l-13.67,20.322  C70.391,49.269,70.416,49.29,70.441,49.312z"/>
<path fill="#000000" d="M70.114,49.029l13.625-20.255c-0.03-0.015-0.06-0.03-0.089-0.044L70.04,48.963  C70.064,48.986,70.09,49.008,70.114,49.029z"/>
<path fill="#000000" d="M69.795,48.736L83.348,28.59c-0.031-0.014-0.062-0.027-0.092-0.041L69.724,48.666  C69.748,48.689,69.771,48.713,69.795,48.736z"/>
<path fill="#000000" d="M69.486,48.428l13.459-20.009c-0.03-0.013-0.062-0.026-0.093-0.038L69.416,48.355  C69.439,48.381,69.463,48.404,69.486,48.428z"/>
<path fill="#000000" d="M69.185,48.109l13.353-19.85c-0.033-0.012-0.064-0.022-0.098-0.033L69.117,48.032  C69.14,48.058,69.162,48.084,69.185,48.109z"/>
<path fill="#000000" d="M68.893,47.774l13.225-19.658c-0.033-0.011-0.065-0.021-0.098-0.032L68.827,47.695  C68.849,47.723,68.871,47.748,68.893,47.774z"/>
<path fill="#000000" d="M68.61,47.428l13.078-19.443c-0.033-0.01-0.067-0.018-0.101-0.027L68.547,47.345  C68.568,47.373,68.589,47.4,68.61,47.428z"/>
<path fill="#000000" d="M68.338,47.065L81.25,27.869c-0.034-0.008-0.068-0.017-0.103-0.024L68.275,46.98  C68.296,47.009,68.316,47.037,68.338,47.065z"/>
<path fill="#000000" d="M68.074,46.689l12.728-18.922c-0.034-0.007-0.07-0.014-0.105-0.02L68.016,46.6  C68.035,46.629,68.055,46.659,68.074,46.689z"/>
<path fill="#000000" d="M67.822,46.297l12.52-18.613c-0.035-0.006-0.07-0.012-0.106-0.018l-12.47,18.538  C67.783,46.235,67.803,46.266,67.822,46.297z"/>
<path fill="#000000" d="M67.58,45.888l12.293-18.273c-0.037-0.005-0.074-0.009-0.111-0.013L67.526,45.791  C67.545,45.823,67.562,45.855,67.58,45.888z"/>
<path fill="#000000" d="M67.35,45.463l12.041-17.899c-0.037-0.003-0.075-0.007-0.113-0.011L67.299,45.361  C67.316,45.395,67.333,45.429,67.35,45.463z"/>
<path fill="#000000" d="M67.133,45.018L78.896,27.53c-0.039-0.002-0.078-0.003-0.116-0.005L67.084,44.913  C67.101,44.947,67.117,44.982,67.133,45.018z"/>
<path fill="#000000" d="M66.93,44.553l11.459-17.036c-0.025,0-0.052-0.001-0.078-0.001c-0.014,0-0.027,0-0.041,0L66.885,44.443  C66.898,44.48,66.914,44.517,66.93,44.553z"/>
<path fill="#000000" d="M66.739,44.068l11.128-16.544c-0.041,0.001-0.082,0.003-0.122,0.005L66.698,43.952  C66.712,43.99,66.725,44.029,66.739,44.068z"/>
<path fill="#000000" d="M66.565,43.559l10.766-16.004c-0.042,0.004-0.085,0.008-0.127,0.012L66.527,43.438  C66.541,43.478,66.553,43.518,66.565,43.559z"/>
<path fill="#000000" d="M66.41,43.023l10.367-15.412c-0.045,0.005-0.088,0.012-0.131,0.018L66.376,42.896  C66.387,42.938,66.398,42.98,66.41,43.023z"/>
<path fill="#000000" d="M66.273,42.458l9.93-14.762c-0.045,0.008-0.09,0.016-0.135,0.024l-9.824,14.604  C66.253,42.369,66.264,42.414,66.273,42.458z"/>
<path fill="#000000" d="M75.467,27.847l-9.332,13.872c0.008,0.047,0.016,0.094,0.023,0.142l9.449-14.046  C75.561,27.824,75.514,27.836,75.467,27.847z"/>
<path fill="#000000" d="M74.838,28.014l-8.784,13.059c0.005,0.051,0.011,0.102,0.017,0.152l8.916-13.254  C74.937,27.984,74.887,27.998,74.838,28.014z"/>
<path fill="#000000" d="M74.178,28.227l-8.173,12.15c0.002,0.055,0.005,0.11,0.008,0.165l8.321-12.37  C74.281,28.189,74.229,28.209,74.178,28.227z"/>
<path fill="#000000" d="M73.477,28.501l-7.482,11.123c0,0.06-0.002,0.12-0.002,0.181l7.65-11.373  C73.587,28.455,73.531,28.478,73.477,28.501z"/>
<path fill="#000000" d="M72.725,28.854l-6.688,9.941c-0.005,0.066-0.011,0.133-0.015,0.199l6.881-10.23  C72.844,28.793,72.783,28.822,72.725,28.854z"/>
<path fill="#000000" d="M71.896,29.316l-5.746,8.541c-0.012,0.075-0.023,0.151-0.034,0.229l5.979-8.889  C72.028,29.236,71.962,29.275,71.896,29.316z"/>
<path fill="#000000" d="M70.948,29.957l-4.565,6.787c-0.023,0.092-0.047,0.186-0.068,0.278l4.867-7.235  C71.104,29.843,71.025,29.899,70.948,29.957z"/>
<path fill="#000000" d="M69.737,30.99l-2.859,4.25c-0.055,0.137-0.106,0.272-0.157,0.41l3.339-4.963  C69.95,30.787,69.844,30.887,69.737,30.99z"/>
<path fill="#000000" d="M86.854,48.708l2.906-4.319c0.053-0.133,0.104-0.268,0.151-0.402l-3.375,5.018  C86.645,48.906,86.75,48.809,86.854,48.708z"/>
<path fill="#000000" d="M85.653,49.727l4.591-6.826c0.023-0.092,0.047-0.185,0.068-0.277l-4.893,7.271  C85.498,49.84,85.576,49.783,85.653,49.727z"/>
<path fill="#000000" d="M84.707,50.363l5.767-8.571c0.013-0.075,0.023-0.151,0.034-0.228L84.51,50.48  C84.576,50.442,84.643,50.403,84.707,50.363z"/>
<path fill="#000000" d="M83.882,50.824l6.705-9.968c0.005-0.066,0.01-0.132,0.015-0.198l-6.898,10.254  C83.764,50.883,83.822,50.854,83.882,50.824z"/>
<path fill="#000000" d="M83.13,51.174l7.497-11.145c0.001-0.061,0.002-0.121,0.002-0.181l-7.664,11.394  C83.02,51.221,83.075,51.197,83.13,51.174z"/>
<path fill="#000000" d="M82.431,51.446l8.186-12.169c-0.003-0.055-0.005-0.109-0.009-0.164l-8.333,12.388  C82.326,51.483,82.379,51.465,82.431,51.446z"/>
<path fill="#000000" d="M81.771,51.66l8.796-13.076c-0.006-0.051-0.012-0.102-0.018-0.152l-8.926,13.27  C81.672,51.688,81.721,51.674,81.771,51.66z"/>
<path fill="#000000" d="M81.143,51.825l9.342-13.887c-0.008-0.048-0.016-0.095-0.023-0.142l-9.459,14.061  C81.049,51.847,81.096,51.836,81.143,51.825z"/>
<path fill="#000000" d="M80.542,51.951l9.833-14.618c-0.01-0.045-0.02-0.089-0.029-0.134l-9.939,14.775  C80.452,51.967,80.497,51.959,80.542,51.951z"/>
<path fill="#000000" d="M79.965,52.042l10.277-15.28c-0.01-0.043-0.021-0.084-0.033-0.127L79.834,52.059  C79.877,52.054,79.921,52.048,79.965,52.042z"/>
<path fill="#000000" d="M79.406,52.104L90.09,36.221c-0.012-0.04-0.025-0.08-0.037-0.121L79.279,52.115  C79.322,52.111,79.364,52.107,79.406,52.104z"/>
<path fill="#000000" d="M78.865,52.141L89.92,35.707c-0.014-0.039-0.027-0.078-0.041-0.116L78.743,52.145  C78.784,52.143,78.825,52.142,78.865,52.141z"/>
<path fill="#000000" d="M78.311,52.152c0.01,0,0.02,0,0.03,0l11.393-16.936c-0.015-0.037-0.03-0.074-0.045-0.111L78.223,52.152  C78.252,52.152,78.281,52.152,78.311,52.152z"/>
<path fill="#000000" d="M77.831,52.143l11.702-17.396c-0.017-0.035-0.033-0.069-0.049-0.104l-11.77,17.496  C77.754,52.141,77.793,52.141,77.831,52.143z"/>
<path fill="#000000" d="M77.334,52.114l11.984-17.815c-0.018-0.033-0.035-0.067-0.052-0.102L77.221,52.104  C77.259,52.107,77.296,52.111,77.334,52.114z"/>
<path fill="#000000" d="M76.85,52.066l12.24-18.197c-0.018-0.032-0.035-0.064-0.054-0.097L76.739,52.054  C76.775,52.059,76.812,52.062,76.85,52.066z"/>
<path fill="#000000" d="M76.377,52.002l12.475-18.545c-0.019-0.031-0.038-0.062-0.057-0.092L76.27,51.984  C76.306,51.99,76.342,51.996,76.377,52.002z"/>
<path fill="#000000" d="M75.916,51.92l12.686-18.858c-0.021-0.03-0.039-0.06-0.06-0.089L75.811,51.898  C75.846,51.906,75.881,51.912,75.916,51.92z"/>
<path fill="#000000" d="M75.465,51.822L88.34,32.682c-0.02-0.029-0.041-0.057-0.062-0.086L75.363,51.797  C75.396,51.806,75.431,51.814,75.465,51.822z"/>
<path fill="#000000" d="M75.025,51.709l13.044-19.393c-0.021-0.027-0.042-0.055-0.063-0.082L74.924,51.682  C74.957,51.691,74.991,51.699,75.025,51.709z"/>
<path fill="#000000" d="M74.594,51.582l13.195-19.615c-0.021-0.027-0.045-0.053-0.066-0.079L74.496,51.55  C74.529,51.561,74.562,51.571,74.594,51.582z"/>
<path fill="#000000" d="M74.173,51.439l13.325-19.81c-0.021-0.025-0.045-0.052-0.067-0.076L74.076,51.406  C74.108,51.418,74.141,51.429,74.173,51.439z"/>
<path fill="#000000" d="M73.761,51.285l13.438-19.979c-0.023-0.024-0.047-0.049-0.07-0.072L73.668,51.247  C73.699,51.26,73.729,51.272,73.761,51.285z"/>
<path fill="#000000" d="M73.358,51.116l13.533-20.119c-0.024-0.023-0.048-0.047-0.071-0.07L73.266,51.076  C73.297,51.09,73.328,51.103,73.358,51.116z"/>
<path fill="#000000" d="M72.963,50.936l13.612-20.236c-0.024-0.021-0.05-0.043-0.075-0.065L72.874,50.891  C72.904,50.905,72.934,50.92,72.963,50.936z"/>
<path fill="#000000" d="M72.578,50.74L86.25,30.416c-0.025-0.021-0.051-0.043-0.076-0.064L72.49,50.693  C72.52,50.709,72.549,50.725,72.578,50.74z"/>
<path fill="#000000" d="M72.201,50.533l13.715-20.39c-0.025-0.021-0.052-0.04-0.078-0.06L72.115,50.483  C72.145,50.5,72.172,50.517,72.201,50.533z"/>
<path fill="#000000" d="M71.832,50.312l13.742-20.428c-0.027-0.02-0.053-0.039-0.08-0.059L71.749,50.261  C71.777,50.278,71.805,50.296,71.832,50.312z"/>
<path fill="#000000" d="M71.473,50.082l13.752-20.444c-0.027-0.019-0.055-0.036-0.082-0.056L71.391,50.026  C71.418,50.045,71.445,50.062,71.473,50.082z"/>
<path fill="#000000" d="M71.12,49.837l13.745-20.434c-0.027-0.018-0.056-0.034-0.084-0.052l-13.74,20.428  C71.066,49.799,71.094,49.818,71.12,49.837z"/>
<g>
	<path fill="#000000" d="M13.231,39.777c-0.168,0-0.305-0.137-0.305-0.305V38.1c0-0.168,0.137-0.305,0.305-0.305   c0.106,0,0.192-0.086,0.192-0.192c0-0.106-0.086-0.192-0.192-0.192c-0.196,0-0.371,0.083-0.497,0.214   c-0.125-0.131-0.301-0.214-0.497-0.214c-0.106,0-0.192,0.086-0.192,0.192c0,0.106,0.086,0.192,0.192,0.192   c0.167,0,0.304,0.137,0.304,0.305v1.373c0,0.168-0.137,0.305-0.304,0.305c-0.106,0-0.192,0.086-0.192,0.192   c0,0.106,0.086,0.192,0.192,0.192c0.195,0,0.371-0.083,0.497-0.214c0.125,0.131,0.301,0.214,0.497,0.214   c0.106,0,0.192-0.086,0.192-0.192C13.423,39.863,13.337,39.777,13.231,39.777z"/>
</g>
</svg>