<svg xmlns="http://www.w3.org/2000/svg" xmlns:xlink="http://www.w3.org/1999/xlink" version="1.1" x="0px" y="0px" width="100px" height="100px" viewBox="0 0 100 100" enable-background="new 0 0 100 100" xml:space="preserve">
<g id="Captions">
</g>
<g id="Your_Icon">
	<g>
		<g>
			<path fill-rule="evenodd" clip-rule="evenodd" fill="#000000" d="M66.454,58.854c0.024-0.32,0.049-0.64,0.074-0.959     c-5.414,0-10.827,0-16.24,0c0-0.195,0-0.391-0.002-0.587c3.44-1.342,6.879-2.686,10.32-4.028     c-0.108-0.295-0.218-0.59-0.327-0.884c-3.784,1.392-7.568,2.784-11.353,4.175c3.744-4.54,8.039-8.341,11.822-12.608     c-0.259-0.257-0.52-0.514-0.778-0.771c-3.889,3.889-7.776,7.778-11.666,11.667c0.449-2.015,1.297-3.784,1.977-5.618     c0.662-1.795,2.104-3.398,1.851-5.451c-0.207-0.079-0.411-0.157-0.618-0.235c-1.548,3.443-3.097,6.886-4.646,10.329     c-0.435-1.45-0.436-2.815-0.434-4.181c0.01-11.792,0.025-23.584,0.017-35.376c0-0.775-0.183-1.55-0.28-2.324     c-0.28,0.034-0.56,0.067-0.839,0.101c0,14.176,0,28.353,0,42.529c-0.163,0.029-0.324,0.056-0.486,0.084     c-1.452-3.722-2.903-7.443-4.355-11.165c-0.291,0.112-0.582,0.224-0.872,0.336c1.422,3.889,2.844,7.777,4.265,11.666     c-0.115,0.059-0.231,0.117-0.346,0.177c-4.145-4.12-8.29-8.241-12.434-12.36c-0.217,0.22-0.434,0.442-0.651,0.663     c3.771,3.861,7.541,7.722,11.312,11.582c-0.064,0.104-0.127,0.21-0.191,0.314c-3.45-1.477-6.901-2.954-10.351-4.429     c-0.139,0.295-0.277,0.592-0.416,0.888c3.6,1.638,7.199,3.275,10.797,4.914c-0.057,0.174-0.114,0.347-0.171,0.521     c-1.981,0-3.962,0-5.943,0.001c-1.932,0-3.864-0.003-5.796,0.001c-4.751,0.013-4.751,0.015-5.849,1.082c6.095,0,11.87,0,17.645,0     c-3.277,2.195-7.144,2.814-10.352,4.813c0.094,0.231,0.188,0.464,0.282,0.694c3.615-1.343,7.23-2.684,10.846-4.027     c-0.603,1.077-1.354,1.898-2.137,2.685c-2.96,2.972-5.945,5.919-8.883,8.912c-0.418,0.427-0.626,1.061-0.931,1.599     c0.299,0.212,0.599,0.421,0.898,0.633c3.823-3.996,7.645-7.992,11.467-11.988c0.146,0.099,0.292,0.196,0.437,0.294     c-1.454,3.433-2.908,6.865-4.362,10.298c0.335,0.142,0.672,0.283,1.007,0.425c1.681-3.782,3.362-7.564,5.043-11.349     c0.182,0.03,0.362,0.063,0.542,0.094c0,5.965,0,11.929,0,17.892c0.339,0.011,0.678,0.022,1.017,0.033     c0.199-5.403-0.005-10.833,0.55-16.294c1.264,3.231,2.527,6.461,3.791,9.692c0.301-0.116,0.602-0.232,0.902-0.35     c-1.334-3.636-2.669-7.272-4.004-10.908c4.505,3.655,8.192,8.002,12.455,11.714c0.207-0.212,0.412-0.425,0.618-0.637     c-4.06-4.134-8.12-8.267-12.179-12.399c4.052,1.081,7.552,3.231,11.429,4.342c0.108-0.261,0.217-0.52,0.326-0.779     c-3.648-1.642-7.295-3.282-10.943-4.925c0.046-0.171,0.091-0.343,0.137-0.513C55.114,58.854,60.783,58.854,66.454,58.854z"/>
			<path fill-rule="evenodd" clip-rule="evenodd" d="M66.454,58.854c-5.671,0-11.34,0-17.012,0c-0.046,0.17-0.091,0.342-0.137,0.513     c3.648,1.643,7.295,3.283,10.943,4.925c-0.109,0.26-0.218,0.519-0.326,0.779c-3.877-1.11-7.377-3.261-11.429-4.342     c4.059,4.133,8.12,8.266,12.179,12.399c-0.206,0.212-0.411,0.425-0.618,0.637c-4.263-3.712-7.949-8.059-12.455-11.714     c1.335,3.636,2.67,7.272,4.004,10.908c-0.301,0.117-0.602,0.233-0.902,0.35c-1.264-3.231-2.527-6.461-3.791-9.692     c-0.555,5.461-0.351,10.891-0.55,16.294c-0.339-0.011-0.678-0.022-1.017-0.033c0-5.963,0-11.927,0-17.892     c-0.18-0.03-0.361-0.063-0.542-0.094c-1.681,3.784-3.362,7.566-5.043,11.349c-0.335-0.142-0.672-0.283-1.007-0.425     c1.454-3.433,2.908-6.865,4.362-10.298c-0.146-0.098-0.291-0.195-0.437-0.294c-3.822,3.996-7.644,7.992-11.467,11.988     c-0.299-0.212-0.599-0.421-0.898-0.633c0.305-0.538,0.512-1.172,0.931-1.599c2.938-2.993,5.923-5.94,8.883-8.912     c0.784-0.786,1.535-1.607,2.137-2.685c-3.615,1.344-7.23,2.685-10.846,4.027c-0.094-0.23-0.188-0.463-0.282-0.694     c3.208-1.998,7.075-2.617,10.352-4.813c-5.774,0-11.55,0-17.645,0c1.097-1.067,1.097-1.069,5.849-1.082     c1.932-0.004,3.864-0.001,5.796-0.001c1.981-0.001,3.962-0.001,5.943-0.001c0.057-0.174,0.114-0.347,0.171-0.521     c-3.598-1.639-7.197-3.276-10.797-4.914c0.138-0.296,0.277-0.593,0.416-0.888c3.45,1.475,6.901,2.952,10.351,4.429     c0.064-0.104,0.127-0.21,0.191-0.314c-3.771-3.86-7.541-7.721-11.312-11.582c0.217-0.221,0.435-0.443,0.651-0.663     c4.145,4.12,8.29,8.24,12.434,12.36c0.115-0.06,0.231-0.118,0.346-0.177c-1.421-3.889-2.843-7.777-4.265-11.666     c0.29-0.112,0.582-0.224,0.872-0.336c1.452,3.722,2.904,7.443,4.355,11.165c0.162-0.028,0.324-0.055,0.486-0.084     c0-14.176,0-28.353,0-42.529c0.279-0.034,0.559-0.067,0.839-0.101c0.097,0.774,0.28,1.549,0.28,2.324     c0.009,11.792-0.007,23.584-0.017,35.376c-0.001,1.366,0,2.731,0.434,4.181c1.549-3.443,3.098-6.886,4.646-10.329     c0.207,0.078,0.411,0.157,0.618,0.235c0.253,2.053-1.188,3.656-1.851,5.451c-0.68,1.834-1.528,3.604-1.977,5.618     c3.889-3.889,7.777-7.777,11.666-11.667c0.259,0.257,0.52,0.514,0.778,0.771c-3.783,4.267-8.078,8.068-11.822,12.608     c3.784-1.391,7.568-2.783,11.353-4.175c0.109,0.294,0.219,0.589,0.327,0.884c-3.441,1.343-6.88,2.687-10.32,4.028     c0.002,0.196,0.002,0.392,0.002,0.587c5.413,0,10.826,0,16.24,0C66.503,58.214,66.479,58.533,66.454,58.854z"/>
		</g>
		<path fill="none" stroke="#000000" stroke-width="0.5" stroke-miterlimit="10" d="M73.144,45.915    c8.452,4.671,16.903,9.342,25.355,14.014"/>
		<path fill="none" stroke="#000000" stroke-width="0.5" stroke-miterlimit="10" d="M55.577,36.207    c5.437,2.974,10.581,6.493,16.249,9.033"/>
		<line fill="none" stroke="#000000" stroke-width="0.5" stroke-miterlimit="10" x1="55.577" y1="36.207" x2="2" y2="62.86"/>
		<line fill="none" stroke="#000000" stroke-width="0.5" stroke-miterlimit="10" x1="98.499" y1="59.929" x2="45.185" y2="86.052"/>
		<line fill="none" stroke="#000000" stroke-width="0.5" stroke-miterlimit="10" x1="45.185" y1="86.052" x2="2" y2="62.86"/>
		<line fill="none" stroke="#000000" stroke-width="0.5" stroke-miterlimit="10" x1="71.842" y1="45.195" x2="45.185" y2="58.595"/>
		<line fill="none" stroke="#000000" stroke-width="0.5" stroke-miterlimit="10" x1="73.216" y1="45.955" x2="45.185" y2="59.462"/>
		<line fill="none" stroke="#000000" stroke-width="0.5" stroke-miterlimit="10" x1="71.842" y1="45.195" x2="71.842" y2="46.617"/>
		<line fill="none" stroke="#000000" stroke-width="0.5" stroke-miterlimit="10" x1="2" y1="62.86" x2="2" y2="64.09"/>
		<line fill="none" stroke="#000000" stroke-width="0.5" stroke-miterlimit="10" x1="2" y1="64.09" x2="45.185" y2="87.48"/>
		<line fill="none" stroke="#000000" stroke-width="0.5" stroke-miterlimit="10" x1="45.185" y1="87.48" x2="45.185" y2="86.052"/>
		<line fill="none" stroke="#000000" stroke-width="0.5" stroke-miterlimit="10" x1="45.185" y1="87.48" x2="98.499" y2="61.291"/>
		<line fill="none" stroke="#000000" stroke-width="0.5" stroke-miterlimit="10" x1="98.499" y1="61.291" x2="98.499" y2="59.929"/>
	</g>
</g>
</svg>