<svg xmlns="http://www.w3.org/2000/svg" xmlns:xlink="http://www.w3.org/1999/xlink" version="1.1" id="Livello_1" x="0px" y="0px" width="100px" height="100px" viewBox="0 0 100 100" enable-background="new 0 0 100 100" xml:space="preserve">
<polygon points="93.424,17.475 93.424,15.96 87.354,15.96 87.354,12.598 83.934,12.598 83.934,6.365 82.42,6.365 82.42,12.598   80.423,12.598 80.423,6.365 78.909,6.365 78.909,12.598 76.908,12.598 76.908,6.365 75.395,6.365 75.395,12.598 73.397,12.598   73.397,6.365 71.884,6.365 71.884,12.598 69.887,12.598 69.887,6.365 68.373,6.365 68.373,12.598 66.371,12.598 66.371,6.365   64.857,6.365 64.857,12.598 62.86,12.598 62.86,6.365 61.347,6.365 61.347,12.598 59.35,12.598 59.35,6.365 57.836,6.365   57.836,12.598 55.835,12.598 55.835,6.365 54.321,6.365 54.321,12.598 52.323,12.598 52.323,6.365 50.809,6.365 50.809,12.598   48.813,12.598 48.813,6.365 47.299,6.365 47.299,12.598 45.298,12.598 45.298,6.365 43.784,6.365 43.784,12.598 41.788,12.598   41.788,6.365 40.273,6.365 40.273,12.598 38.277,12.598 38.277,6.365 36.762,6.365 36.762,12.598 34.766,12.598 34.766,6.365   33.251,6.365 33.251,12.598 31.251,12.598 31.251,6.365 29.736,6.365 29.736,12.598 27.74,12.598 27.74,6.365 26.226,6.365   26.226,12.598 24.229,12.598 24.229,6.365 22.715,6.365 22.715,12.598 20.714,12.598 20.714,6.365 19.2,6.365 19.2,12.598   17.204,12.598 17.204,6.365 15.689,6.365 15.689,12.598 12.265,12.598 12.265,15.96 6.576,15.96 6.576,17.475 12.265,17.475   12.265,19.473 6.576,19.473 6.576,20.987 12.265,20.987 12.265,22.984 6.576,22.984 6.576,24.499 12.265,24.499 12.265,26.497   6.576,26.497 6.576,28.011 12.265,28.011 12.265,30.01 6.576,30.01 6.576,31.524 12.265,31.524 12.265,33.521 6.576,33.521   6.576,35.035 12.265,35.035 12.265,37.033 6.576,37.033 6.576,38.548 12.265,38.548 12.265,40.546 6.576,40.546 6.576,42.061   12.265,42.061 12.265,44.057 6.576,44.057 6.576,45.572 12.265,45.572 12.265,47.57 6.576,47.57 6.576,49.084 12.265,49.084   12.265,51.083 6.576,51.083 6.576,52.597 12.265,52.597 12.265,54.594 6.576,54.594 6.576,56.107 12.265,56.107 12.265,58.109   6.576,58.109 6.576,59.623 12.265,59.623 12.265,61.62 6.576,61.62 6.576,63.134 12.265,63.134 12.265,65.131 6.576,65.131   6.576,66.645 12.265,66.645 12.265,68.646 6.576,68.646 6.576,70.16 12.265,70.16 12.265,72.157 6.576,72.157 6.576,73.671   12.265,73.671 12.265,75.668 6.576,75.668 6.576,77.182 12.265,77.182 12.265,79.183 6.576,79.183 6.576,80.696 12.265,80.696   12.265,82.693 6.576,82.693 6.576,84.207 12.265,84.207 12.265,88.009 15.689,88.009 15.689,93.844 17.204,93.844 17.204,88.009   19.2,88.009 19.2,93.844 20.714,93.844 20.714,88.009 22.715,88.009 22.715,93.844 24.229,93.844 24.229,88.009 26.226,88.009   26.226,93.844 27.74,93.844 27.74,88.009 29.736,88.009 29.736,93.844 31.251,93.844 31.251,88.009 33.251,88.009 33.251,93.844   34.766,93.844 34.766,88.009 36.762,88.009 36.762,93.844 38.277,93.844 38.277,88.009 40.273,88.009 40.273,93.844 41.788,93.844   41.788,88.009 43.784,88.009 43.784,93.844 45.298,93.844 45.298,88.009 47.299,88.009 47.299,93.844 48.813,93.844 48.813,88.009   50.809,88.009 50.809,93.844 52.323,93.844 52.323,88.009 54.321,88.009 54.321,93.844 55.835,93.844 55.835,88.009 57.836,88.009   57.836,93.844 59.35,93.844 59.35,88.009 61.347,88.009 61.347,93.844 62.86,93.844 62.86,88.009 64.857,88.009 64.857,93.844   66.371,93.844 66.371,88.009 68.373,88.009 68.373,93.844 69.887,93.844 69.887,88.009 71.884,88.009 71.884,93.844 73.397,93.844   73.397,88.009 75.395,88.009 75.395,93.844 76.908,93.844 76.908,88.009 78.909,88.009 78.909,93.844 80.423,93.844 80.423,88.009   82.42,88.009 82.42,93.844 83.934,93.844 83.934,88.009 87.354,88.009 87.354,84.207 93.424,84.207 93.424,82.693 87.354,82.693   87.354,80.696 93.424,80.696 93.424,79.183 87.354,79.183 87.354,77.182 93.424,77.182 93.424,75.668 87.354,75.668 87.354,73.671   93.424,73.671 93.424,72.157 87.354,72.157 87.354,70.16 93.424,70.16 93.424,68.646 87.354,68.646 87.354,66.645 93.424,66.645   93.424,65.131 87.354,65.131 87.354,63.134 93.424,63.134 93.424,61.62 87.354,61.62 87.354,59.623 93.424,59.623 93.424,58.109   87.354,58.109 87.354,56.107 93.424,56.107 93.424,54.594 87.354,54.594 87.354,52.597 93.424,52.597 93.424,51.083 87.354,51.083   87.354,49.084 93.424,49.084 93.424,47.57 87.354,47.57 87.354,45.572 93.424,45.572 93.424,44.057 87.354,44.057 87.354,42.061   93.424,42.061 93.424,40.546 87.354,40.546 87.354,38.548 93.424,38.548 93.424,37.033 87.354,37.033 87.354,35.035 93.424,35.035   93.424,33.521 87.354,33.521 87.354,31.524 93.424,31.524 93.424,30.01 87.354,30.01 87.354,28.011 93.424,28.011 93.424,26.497   87.354,26.497 87.354,24.499 93.424,24.499 93.424,22.984 87.354,22.984 87.354,20.987 93.424,20.987 93.424,19.473 87.354,19.473   87.354,17.475 "/>
</svg>