<svg xmlns="http://www.w3.org/2000/svg" xmlns:xlink="http://www.w3.org/1999/xlink" version="1.1" x="0px" y="0px" width="100px" height="100px" viewBox="0 0 100 100" enable-background="new 0 0 100 100" xml:space="preserve">
<g id="Layer_3">
</g>
<g id="Layer_4">
	<path d="M50,1.045c-27.311,0-49.449,22.14-49.449,49.45c0,23.925,16.991,43.88,39.564,48.46c0-0.037-0.005-0.072-0.005-0.109   c0-5.463,4.428-9.889,9.89-9.889s9.89,4.426,9.89,9.889c0,0.037-0.005,0.072-0.005,0.109c22.573-4.58,39.564-24.535,39.564-48.46   C99.449,23.185,77.31,1.045,50,1.045z M23.791,54.066c-3.004,0-5.439-2.436-5.439-5.439s2.436-5.439,5.439-5.439   c3.005,0,5.439,2.436,5.439,5.439S26.796,54.066,23.791,54.066z M31.95,36.925c-3.004,0-5.438-2.437-5.438-5.44   c0-3.005,2.435-5.44,5.438-5.44c3.005,0,5.439,2.435,5.439,5.44C37.39,34.488,34.955,36.925,31.95,36.925z M50.001,29.562   c-3.005,0-5.439-2.436-5.439-5.439c0-3.005,2.435-5.439,5.439-5.439c3.004,0,5.438,2.435,5.438,5.439   C55.438,27.126,53.005,29.562,50.001,29.562z M62.609,31.485c0-3.005,2.435-5.44,5.439-5.44c3.004,0,5.439,2.435,5.439,5.44   c0,3.003-2.436,5.44-5.439,5.44C65.044,36.925,62.609,34.488,62.609,31.485z M75.109,54.066c-3.004,0-5.439-2.436-5.439-5.439   s2.436-5.439,5.439-5.439s5.439,2.436,5.439,5.439S78.113,54.066,75.109,54.066z"/>
</g>
</svg>