<svg xmlns="http://www.w3.org/2000/svg" xmlns:xlink="http://www.w3.org/1999/xlink" version="1.1" id="Layer_2" x="0px" y="0px" width="100px" height="100px" viewBox="0 0 100 100" enable-background="new 0 0 100 100" xml:space="preserve">
<g>
	<g>
		<path d="M45.472,35.248c0.71,0,1.284-0.575,1.284-1.286c0-0.709-0.574-1.285-1.284-1.285c-0.709,0-1.284,0.576-1.284,1.285    C44.188,34.673,44.763,35.248,45.472,35.248z M54.359,41.564c-0.709,0-1.283,0.576-1.283,1.285c0,0.71,0.574,1.286,1.283,1.286    c0.711,0,1.285-0.575,1.285-1.286C55.645,42.14,55.07,41.564,54.359,41.564z M54.358,35.248c0.71,0,1.284-0.575,1.284-1.286    c0-0.709-0.574-1.285-1.284-1.285c-0.709,0-1.284,0.576-1.284,1.285C53.074,34.673,53.649,35.248,54.358,35.248z M49.998,41.98    c1.929,0,3.494-1.562,3.494-3.49s-1.565-3.491-3.494-3.491c-1.929,0-3.49,1.562-3.49,3.491S48.069,41.98,49.998,41.98z     M70.943,74.091l-10.586-8.706l-2.529-2.079L43.655,51.65l-1.381,1.223l8.134,11.622c0,0,0,0,0,0l4.116,5.882l7.801,11.146    c0.841,1.2,2.207,1.925,3.764,1.994c0.084,0.004,0.169,0.006,0.253,0.006c1.476,0,2.972-0.585,4.153-1.63    c1.204-1.065,1.945-2.535,2.031-4.033C72.614,76.363,72.035,74.989,70.943,74.091z M79.51,8H20.49C19.667,8,19,8.667,19,9.49    v81.02c0,0.823,0.667,1.49,1.49,1.49h59.02c0.823,0,1.49-0.667,1.49-1.49V9.49C81,8.667,80.333,8,79.51,8z M22.831,10    c1.011,0,1.831,0.82,1.831,1.831c0,1.011-0.82,1.831-1.831,1.831c-1.011,0-1.831-0.82-1.831-1.831C21,10.82,21.82,10,22.831,10z     M22.831,90C21.82,90,21,89.181,21,88.169c0-1.011,0.82-1.83,1.831-1.83c1.011,0,1.831,0.819,1.831,1.83    C24.662,89.181,23.842,90,22.831,90z M74.252,77.958c-0.112,1.953-1.063,3.859-2.611,5.229c-1.505,1.33-3.386,2.063-5.298,2.063    c-0.11,0-0.222-0.003-0.33-0.008c-2.092-0.093-3.952-1.088-5.102-2.729l-4.507-6.439L44.144,86.919    C43.379,87.614,42.358,88,41.325,88h-6.59c-0.797,0-1.559-0.879-2.122-1.441l-9.734-10.022C22.316,75.973,22,74.929,22,74.133    V22.602c0-0.796,0.315-1.559,0.879-2.122l9.734-9.168C33.176,10.75,33.939,11,34.735,11h30.431c0.797,0,1.559-0.25,2.122,0.312    l9.783,9.449C77.634,21.325,78,21.806,78,22.602v32.542c0,1.168-0.542,2.282-1.405,3.068L65.881,67.69l6.16,5.066    C73.565,74.012,74.371,75.907,74.252,77.958z M77.169,90c-1.011,0-1.83-0.819-1.83-1.831c0-1.011,0.819-1.83,1.83-1.83    c1.012,0,1.831,0.819,1.831,1.83C79,89.181,78.181,90,77.169,90z M77.169,13.662c-1.011,0-1.83-0.82-1.83-1.831    c0-1.011,0.819-1.831,1.83-1.831C78.181,10,79,10.82,79,11.831C79,12.842,78.181,13.662,77.169,13.662z M45.472,44.135    c0.71,0,1.284-0.575,1.284-1.286c0-0.709-0.574-1.285-1.284-1.285c-0.709,0-1.284,0.576-1.284,1.285    C44.188,43.56,44.763,44.135,45.472,44.135z M41.129,51.58l1.381-1.223c0.327-0.289,0.736-0.435,1.146-0.435    c0.389,0,0.778,0.131,1.097,0.394l14.968,12.309c9.551-3.851,16.294-13.203,16.294-24.135c0-14.366-11.646-26.016-26.013-26.016    c-14.369,0-26.017,11.649-26.017,26.016c0,13.783,10.72,25.056,24.277,25.951l-7.403-10.577    C40.356,53.145,40.472,52.162,41.129,51.58z M50.001,29.038c5.217,0,9.452,4.229,9.452,9.451s-4.235,9.453-9.452,9.453    c-5.222,0-9.454-4.232-9.454-9.453S44.779,29.038,50.001,29.038z"/>
	</g>
</g>
</svg>