<svg xmlns="http://www.w3.org/2000/svg" xmlns:xlink="http://www.w3.org/1999/xlink" xmlns:a="http://ns.adobe.com/AdobeSVGViewerExtensions/3.0/" version="1.1" x="0px" y="0px" width="100px" height="100px" viewBox="-3.705 -22.899 100 100" overflow="visible" enable-background="new -3.705 -22.899 100 100" xml:space="preserve">
<defs>
</defs>
<circle cx="15.302" cy="27.255" r="3.288"/>
<path d="M18.716,41.358c-1.813,0-3.289,1.474-3.289,3.287s1.475,3.288,3.289,3.288c1.813,0,3.288-1.475,3.288-3.288  S20.529,41.358,18.716,41.358z"/>
<path d="M51.122,23.858c-1.813,0-3.288,1.475-3.288,3.288c0,1.814,1.475,3.288,3.288,3.288s3.287-1.474,3.287-3.288  C54.409,25.333,52.936,23.858,51.122,23.858z"/>
<path d="M40.777,5.883c-1.814,0-3.29,1.475-3.29,3.289c0,1.812,1.476,3.287,3.29,3.287c1.812,0,3.287-1.475,3.287-3.287  C44.064,7.358,42.59,5.883,40.777,5.883z"/>
<path d="M10.975,5.883c-1.813,0-3.288,1.475-3.288,3.289c0,1.812,1.475,3.287,3.288,3.287c1.813,0,3.289-1.475,3.289-3.287  C14.264,7.358,12.789,5.883,10.975,5.883z"/>
<path d="M39.36,42.396c0,1.813,1.475,3.288,3.288,3.288c1.813,0,3.289-1.475,3.289-3.288s-1.475-3.287-3.289-3.287  C40.835,39.108,39.36,40.582,39.36,42.396z"/>
<path d="M78.845,5.883c-1.813,0-3.288,1.475-3.288,3.289c0,1.812,1.475,3.287,3.288,3.287c1.812,0,3.287-1.475,3.287-3.287  C82.132,7.358,80.657,5.883,78.845,5.883z"/>
<path d="M93.084,1.73V0H0v54.51h93.084v-6.058h-5.363v-1.126h5.363v-1.211h-5.363v-1.124h5.363V43.78h-5.363v-1.126h5.363v-1.212  h-5.363v-1.123h5.363v-1.211h-5.363v-1.127h5.363v-1.21h-5.363v-1.125h5.363v-1.211h-5.363v-1.125h5.363v-1.212h-5.363v-1.124h5.363  v-1.212h-5.363v-1.125h5.363v-1.211h-5.363v-1.124h5.363V25.09h-5.363v-1.124h5.363v-1.211h-5.363V21.63h5.363v-1.211h-5.363v-1.125  h5.363v-1.21h-5.363v-1.126h5.363v-1.21h-5.363v-1.125h5.363V13.41h-5.363v-1.125h5.363v-1.212h-5.363V9.949h5.363V8.738h-5.363  V7.614h5.363V5.71h-5.363V1.73H93.084z M3.272,1.73c0.815,0,1.473,0.658,1.473,1.471c0,0.812-0.658,1.471-1.473,1.471  c-0.81,0-1.47-0.659-1.47-1.471C1.803,2.389,2.462,1.73,3.272,1.73z M1.803,15.747H5.61v-0.173h1.988v0.173h1.819v1.276h3.071  c0.43,0,0.778,0.348,0.778,0.778s-0.348,0.779-0.778,0.779H9.417v1.276H7.599v0.39H5.61v-0.39H1.803V15.747z M3.272,53.299  c-0.81,0-1.47-0.661-1.47-1.473s0.66-1.47,1.47-1.47c0.815,0,1.473,0.658,1.473,1.47S4.087,53.299,3.272,53.299z M12.489,41.941  H9.417v1.275H7.599v0.392H5.61v-0.392H1.803v-4.108H5.61v-0.174h1.988v0.174h1.819v1.275h3.071c0.43,0,0.778,0.349,0.778,0.778  S12.919,41.941,12.489,41.941z M12.489,35.322H9.417v1.276H7.599v0.39H5.61v-0.39H1.803v-4.109H5.61v-0.173h1.988v0.173h1.819v1.276  h3.071c0.43,0,0.778,0.349,0.778,0.778S12.919,35.322,12.489,35.322z M48.842,35.669c0-0.43,0.349-0.779,0.778-0.779h3.069v-1.275  h1.82v-0.39h1.986v0.39h3.809v4.109h-3.809v0.173H54.51v-0.173h-1.82v-1.276H49.62C49.19,36.447,48.842,36.099,48.842,35.669z   M76.597,51.653h-3.808v0.173h-1.988v-0.173h-1.819v-1.276h-3.07c-0.43,0-0.779-0.349-0.779-0.778s0.35-0.779,0.779-0.779h3.07  v-1.273h1.819v-0.391h1.988v0.391h3.808V51.653z M78.845,14.535c-2.603,0-4.775-1.864-5.261-4.326h-6.952v7.095h13.251v28.38H63.075  c-0.486,2.462-2.658,4.326-5.261,4.326c-2.957,0-5.365-2.407-5.365-5.365s2.408-5.365,5.365-5.365c2.603,0,4.774,1.864,5.261,4.326  h14.73V19.381H64.554v-9.171h-9.59v4.326h6.156v5.841h9.838v9.318c2.462,0.486,4.326,2.658,4.326,5.261  c0,2.958-2.407,5.365-5.365,5.365s-5.365-2.407-5.365-5.365c0-2.603,1.864-4.774,4.327-5.261v-7.242H61.12v5.841h-4.763  c-0.528,2.407-2.672,4.219-5.235,4.219c-2.958,0-5.365-2.407-5.365-5.366c0-2.958,2.407-5.364,5.365-5.364  c2.639,0,4.827,1.92,5.271,4.435h2.649v-9.605h-4.079v2.77H43.687v17.754c2.463,0.485,4.327,2.659,4.327,5.261  c0,2.958-2.407,5.365-5.366,5.365c-2.958,0-5.365-2.407-5.365-5.365c0-2.602,1.864-4.775,4.327-5.261V19.381h-5.683v3.482  c1.125,0.199,1.978,1.175,1.978,2.356v6.305c0,1.325-1.072,2.399-2.398,2.399h-1.26v11.761H23.975  c-0.485,2.462-2.657,4.326-5.259,4.326c-2.958,0-5.365-2.407-5.365-5.365s2.406-5.365,5.365-5.365c2.602,0,4.774,1.864,5.259,4.326  h8.195v-9.683h-2.967c-1.328,0-2.401-1.074-2.401-2.399v-3.231h-6.237c-0.485,2.462-2.659,4.327-5.263,4.327  c-2.958,0-5.365-2.407-5.365-5.366s2.407-5.365,5.365-5.365c2.604,0,4.777,1.864,5.263,4.327h6.237v-0.997  c0-1.325,1.073-2.399,2.401-2.399h4.647v-3.439h-4.012v-9.171H16.235c-0.485,2.462-2.657,4.326-5.26,4.326  c-2.958,0-5.365-2.406-5.365-5.364c0-2.958,2.407-5.365,5.365-5.365c2.603,0,4.775,1.864,5.26,4.326h15.68v9.171h16.476v-7.095  h-2.355c-0.485,2.462-2.656,4.326-5.258,4.326c-2.958,0-5.366-2.406-5.366-5.364c0-2.958,2.408-5.365,5.366-5.365  c2.602,0,4.773,1.864,5.258,4.326h4.432v9.171h2.418V8.133h20.698c0.485-2.462,2.658-4.326,5.261-4.326  c2.957,0,5.365,2.406,5.365,5.365C84.21,12.129,81.802,14.535,78.845,14.535z"/>
<path d="M57.814,41.358c-1.812,0-3.287,1.474-3.287,3.287s1.475,3.288,3.287,3.288c1.813,0,3.288-1.475,3.288-3.288  S59.628,41.358,57.814,41.358z"/>
<circle cx="69.919" cy="34.955" r="3.288"/>
</svg>