<svg xmlns="http://www.w3.org/2000/svg" xmlns:xlink="http://www.w3.org/1999/xlink" version="1.1" id="Your_Icon" x="0px" y="0px" width="100px" height="100px" viewBox="0 0 100 100" enable-background="new 0 0 100 100" xml:space="preserve">
<path d="M26,84C11.664,84,0,72.337,0,58c0-13.841,23.487-41.152,24.487-42.309c0.76-0.878,2.266-0.878,3.025,0  C28.513,16.848,52,44.159,52,58C52,72.337,40.337,84,26,84z M26,20.092C18.686,28.868,4,48.459,4,58c0,12.131,9.869,22,22,22  s22-9.869,22-22C48,48.459,33.314,28.868,26,20.092z"/>
<path d="M51.001,84c-1.104,0-2-0.896-2-2s0.896-2,2-2c12.131,0,22-9.869,22-22c0-9.538-14.679-29.122-21.994-37.901  c-1.009,1.216-2.453,2.991-4.119,5.13c-0.68,0.873-1.936,1.027-2.807,0.349c-0.872-0.679-1.028-1.936-0.35-2.807  c3.28-4.212,5.657-6.964,5.757-7.08C49.868,15.252,50.42,15,51.001,15l0,0c0.581,0,1.133,0.252,1.513,0.691  c1,1.156,24.487,28.468,24.487,42.309C77.001,72.337,65.338,84,51.001,84z"/>
<path d="M74.001,84c-1.104,0-2-0.896-2-2s0.896-2,2-2c12.131,0,22-9.869,22-22c0-9.539-14.679-29.123-21.994-37.901  c-0.849,1.023-2.006,2.441-3.343,4.138c-0.686,0.869-1.942,1.016-2.81,0.333c-0.867-0.684-1.017-1.941-0.333-2.809  c2.875-3.647,4.883-5.973,4.967-6.07C72.868,15.252,73.42,15,74.001,15l0,0c0.581,0,1.133,0.252,1.513,0.691  c1,1.156,24.487,28.468,24.487,42.309C100.001,72.337,88.338,84,74.001,84z"/>
</svg>