<svg xmlns="http://www.w3.org/2000/svg" xmlns:xlink="http://www.w3.org/1999/xlink" version="1.1" id="Layer_1" x="0px" y="0px" width="100px" height="100px" viewBox="0 0 100 100" enable-background="new 0 0 100 100" xml:space="preserve">
<g>
	<path d="M29,89.7c1.119,0,1.9-0.781,1.9-1.9c0-1.118-0.781-1.899-1.9-1.899c-1.118,0-1.899,0.781-1.899,1.899   C27.101,88.919,27.882,89.7,29,89.7z"/>
	<path d="M75.7,13.101H24.3v43h51.4V13.101z M28.101,52.3V16.9h43.799V52.3H28.101z"/>
	<path d="M73.8,66.3H51.4c-1.119,0-1.9,0.781-1.9,1.9s0.781,1.9,1.9,1.9H73.8c1.119,0,1.9-0.781,1.9-1.9S74.919,66.3,73.8,66.3z"/>
	<path d="M78,4.7H22c-3.363,0-6.1,2.736-6.1,6.101v67.2c0,3.195,2.469,5.824,5.6,6.079v9.32c0,1.118,0.781,1.899,1.9,1.899H76.6   c1.119,0,1.9-0.781,1.9-1.899v-9.32c3.131-0.255,5.6-2.884,5.6-6.079v-67.2C84.1,7.437,81.363,4.7,78,4.7z M74.7,84.101v7.4H25.3   v-7.4H74.7z M19.7,10.801C19.7,9.532,20.732,8.5,22,8.5h56c1.268,0,2.3,1.032,2.3,2.301v67.2c0,1.268-1.032,2.299-2.3,2.299H22   c-1.268,0-2.3-1.031-2.3-2.299V10.801z"/>
</g>
</svg>