<svg xmlns="http://www.w3.org/2000/svg" xmlns:xlink="http://www.w3.org/1999/xlink" version="1.1" id="Capa_1" x="0px" y="0px" width="90px" height="90px" viewBox="0 0 90 90" enable-background="new 0 0 90 90" xml:space="preserve">
<path d="M75.967,73.82H54.193c-0.354,0-0.641-0.286-0.641-0.641c0-0.354,0.287-0.641,0.641-0.641h21.773  c0.354,0,0.641,0.287,0.641,0.641C76.607,73.534,76.32,73.82,75.967,73.82z"/>
<path d="M75.967,71.312H54.193c-0.354,0-0.641-0.287-0.641-0.641c0-0.354,0.287-0.641,0.641-0.641h21.773  c0.354,0,0.641,0.286,0.641,0.641C76.607,71.024,76.32,71.312,75.967,71.312z"/>
<path d="M75.967,68.804H54.193c-0.354,0-0.641-0.287-0.641-0.641c0-0.354,0.287-0.641,0.641-0.641h21.773  c0.354,0,0.641,0.286,0.641,0.641C76.607,68.517,76.32,68.804,75.967,68.804z"/>
<path d="M75.967,66.296H54.193c-0.354,0-0.641-0.287-0.641-0.641c0-0.354,0.287-0.641,0.641-0.641h21.773  c0.354,0,0.641,0.286,0.641,0.641C76.607,66.009,76.32,66.296,75.967,66.296z"/>
<path d="M75.967,63.788H54.193c-0.354,0-0.641-0.287-0.641-0.641c0-0.354,0.287-0.641,0.641-0.641h21.773  c0.354,0,0.641,0.286,0.641,0.641C76.607,63.501,76.32,63.788,75.967,63.788z"/>
<path d="M75.967,61.278H54.193c-0.354,0-0.641-0.286-0.641-0.64c0-0.354,0.287-0.641,0.641-0.641h21.773  c0.354,0,0.641,0.286,0.641,0.641C76.607,60.992,76.32,61.278,75.967,61.278z"/>
<path d="M75.967,58.771H54.193c-0.354,0-0.641-0.286-0.641-0.64c0-0.354,0.287-0.641,0.641-0.641h21.773  c0.354,0,0.641,0.286,0.641,0.641C76.607,58.484,76.32,58.771,75.967,58.771z"/>
<path d="M75.967,56.264H54.193c-0.354,0-0.641-0.287-0.641-0.641c0-0.354,0.287-0.641,0.641-0.641h21.773  c0.354,0,0.641,0.286,0.641,0.641C76.607,55.977,76.32,56.264,75.967,56.264z"/>
<path d="M75.967,53.754H54.193c-0.354,0-0.641-0.286-0.641-0.64c0-0.354,0.287-0.641,0.641-0.641h21.773  c0.354,0,0.641,0.286,0.641,0.641C76.607,53.468,76.32,53.754,75.967,53.754z"/>
<path d="M75.967,78.249H54.193c-1.414,0-2.561-1.146-2.561-2.562c0-1.414,1.146-2.562,2.561-2.562h21.773  c1.414,0,2.562,1.147,2.562,2.562C78.529,77.103,77.381,78.249,75.967,78.249z"/>
<path d="M75.967,53.168H54.193c-1.414,0-2.561-1.147-2.561-2.562c0-1.415,1.146-2.562,2.561-2.562h21.773  c1.414,0,2.562,1.147,2.562,2.562C78.529,52.021,77.381,53.168,75.967,53.168z"/>
<path fill="none" d="M32.456,39.668c0.114,3.363,0.215,6.548,0.293,9.534c5.911-7.835,12.003-16.878,5.809-31.969  c-1.574-3.833-2.702-5.94-3.486-7.107l-3.027,9.805C31.993,25.938,32.243,33.371,32.456,39.668z"/>
<path fill="none" d="M33.313,7.444c0.336-0.072,0.702-0.05,1.124,0.179c0.039-1.01-1.333-0.498-1.333-0.498  s-1.129-1.415-1.537,0.083c-0.343,1.258-0.829,4.802-0.516,6.034C31.403,9.577,32.1,7.705,33.313,7.444z"/>
<path fill="none" d="M33.618,8.693c-0.016,0-0.028,0.001-0.036,0.003c-0.605,0.13-0.993,1.611-1.229,3.957  c0.622-1.018,1.306-2.582,1.724-3.725C33.836,8.729,33.687,8.693,33.618,8.693z"/>
<path fill="none" d="M29.756,73.617c0.244,0.319,0.503,0.642,0.775,0.969c0.095-0.347,0.183-0.724,0.264-1.131  c-0.227,0.044-0.489,0.081-0.784,0.125C29.93,73.593,29.844,73.605,29.756,73.617z"/>
<path fill="none" d="M31.562,52.901c-4.334,5.822-7.419,11.021-3.649,17.92c1.627,0.415,2.592,0.692,3.16,0.924  C31.671,67.245,31.714,60.36,31.562,52.901z"/>
<path d="M34.077,8.928c-0.418,1.144-0.53,1.708-1.151,2.726c-0.194,1.929-0.336,3.762-0.361,6.593l2.506-8.121  C34.639,9.484,34.312,9.123,34.077,8.928z"/>
<path d="M30.484,13.854c-0.313-1.232,0.74-5.389,1.083-6.646c0.408-1.498,1.537-0.083,1.537-0.083s1.372-0.512,1.333,0.498  c0.328,0.178,0.691,0.489,1.102,0.984l0.499-1.616c0.562-2.062-0.942-4.267-1.679-4.468c-0.736-0.202-3.139,0.939-3.701,3.003  L11.471,86.579l18.681-60.522C30.104,21.462,30.231,16.486,30.484,13.854z"/>
<path d="M33.583,8.696c0.008-0.002,0.02-0.003,0.036-0.003c0.069,0-0.143-0.017,0.098,0.181c0.136-0.372,0.246-0.704,0.313-0.951  c0.039-0.142,0.043-0.248,0.047-0.354c-0.422-0.229-0.427-0.197-0.763-0.125c-1.213,0.261-1.91,2.133-2.262,5.798  c0.06,0.235,0.146,0.396,0.27,0.429c0.257,0.069,0.631-0.361,1.032-1.018C32.589,10.307,32.978,8.826,33.583,8.696z"/>
<path d="M32.353,12.653c-0.401,0.657-0.775,1.087-1.032,1.018c-0.124-0.034-0.21-0.194-0.27-0.429  c-0.253,2.632-0.326,6.209-0.278,10.805l1.271-4.116C32.068,17.099,32.159,14.582,32.353,12.653z"/>
<path d="M34.438,7.623c-0.004,0.106-0.008,0.213-0.047,0.355c-0.067,0.247-0.177,0.578-0.313,0.95  c0.235,0.195,0.562,0.556,0.994,1.198l0.468-1.519C35.128,8.112,34.765,7.801,34.438,7.623z"/>
<path d="M33.374,48.363c0.017,0.56,0.034,1.256,0.051,2.07c6.221-8.217,12.909-17.629,6.318-33.687  c-1.85-4.505-2.702-6.388-3.729-7.625l-0.468,1.519c0.784,1.167,1.438,2.759,3.012,6.593C44.533,31.791,39.074,40.717,33.374,48.363  z"/>
<path d="M52.395,68.79c-0.703-0.269-13.507-0.142-14.653,2.421c-0.389,0.871,0.201,1.724,1.754,2.537  c1.588,0.83,2.434,1.922,2.383,3.072c-0.05,1.13-0.98,2.261-2.316,2.814c-1.718,0.716-3.627,0.338-5.101-1.004  C33.55,77.8,32.748,77,32.005,76.218c-0.166,0.409-0.371,0.829-0.618,1.21c0.68,0.701,1.405,1.413,2.211,2.148  c1.227,1.118,2.7,1.7,4.192,1.7c0.76,0,1.525-0.151,2.264-0.458c1.812-0.753,3.03-2.3,3.104-3.94c0.042-0.97-0.3-2.815-3.07-4.266  c-1.072-0.562-1.17-0.878-1.178-0.878c0.518-1.36,11.578-2.046,13.064-1.735c0.318,0.101,0.672-0.063,0.793-0.385  C52.893,69.282,52.725,68.913,52.395,68.79z"/>
<path d="M26.073,69.991c0.102,0.183,0.2,0.368,0.295,0.556c0.107,0.21,0.214,0.42,0.331,0.622c0.061,0.105,0.131,0.217,0.205,0.334  c0.187,0.296,0.376,0.629,0.495,0.965c0.15,0.238,1.694,2.383,2.151,2.93c0.082-0.21,0.162-0.422,0.248-0.631l0.064-0.146  c0.029-0.064,0.179-0.392,0.247-0.563c-0.117-0.146-0.241-0.295-0.352-0.44c0.01-0.001-0.521-0.848-0.646-1.019  c-0.46-0.631-0.964-1.233-1.294-1.939c-0.001,0.007-0.006,0.011-0.007,0.017l-0.027-0.08c0.01,0.022,0.023,0.043,0.034,0.063  c0.001-0.007,0.006-0.011,0.007-0.019C24.367,64.136,27.01,59.134,31,53.668c-0.014-0.658-0.031-1.413-0.046-2.089  C26.537,57.455,22.981,62.937,26.073,69.991z"/>
<path d="M32.799,51.258c0.015-0.019-0.035-2.076-0.051-2.056c-0.078-2.986-0.179-6.171-0.293-9.534  c-0.213-6.297-0.463-13.729-0.412-19.738l-1.271,4.116c0.046,4.309,0.193,9.483,0.402,15.665c0.108,3.211,0.216,6.5,0.302,9.742  l0.116,5.266c0.107,6.749,0.029,12.896-0.52,17.026c-0.016-0.006-0.094,0.604-0.148,0.846c-0.06,0.265-0.164,0.87-0.129,0.864  c-0.057,0.284-0.12,0.533-0.184,0.785l0.005,0.004c-0.001-0.005-0.012,0.031-0.023,0.07c-0.021,0.086-0.041,0.188-0.063,0.271  c-0.003-0.004-0.005-0.008-0.009-0.011c-0.046,0.172-0.099,0.357-0.127,0.42c-0.13,0.313-0.252,0.607-0.359,0.913l-0.017,0.05  c0.002,0.002,0.004,0.006,0.007,0.009c-0.008,0.016-0.017,0.028-0.025,0.044c-0.078,0.225-0.156,0.456-0.276,0.675  c-0.08,0.147-0.348,0.135-0.422,0.194l-0.001-0.002c-0.145,0.084-0.267,0.096-0.351,0.097c-4.81-0.219-8.015-2.691-8.755-4.378  c-0.153-0.349-0.278-0.833-0.004-1.16c0.238-0.283,0.805-0.501,1.761-0.501c0.658,0,1.501,0.104,2.548,0.358  c0.513,0.126,1.139,0.277,1.793,0.44c-0.052-0.083-0.106-0.168-0.151-0.245c-0.121-0.213-0.234-0.432-0.346-0.65  c-0.108-0.212-0.215-0.423-0.332-0.627c-0.222-0.054-0.425-0.104-0.662-0.161c-3.514-0.857-4.981-0.167-5.592,0.562  c-0.544,0.647-0.611,1.536-0.189,2.498c1.02,2.322,4.825,4.913,9.871,5.142c0.402,0.036,1.133-0.396,1.133-0.396  c0.096-0.023,0.19-0.075,0.284-0.143c0.017-0.015,0.035-0.027,0.051-0.042c0.023-0.02,0.045-0.047,0.069-0.067  c0.176-0.18,0.343-0.392,0.497-0.647c0.001,0.002,0.003,0.003,0.004,0.006c0.222-0.372,0.42-0.813,0.585-1.254  c-0.004-0.005-0.009-0.009-0.013-0.014C32.908,71.715,33.075,63.185,32.799,51.258z"/>
</svg>