<svg xmlns="http://www.w3.org/2000/svg" xmlns:xlink="http://www.w3.org/1999/xlink" version="1.1" id="Layer_1" x="0px" y="0px" width="100px" height="100px" viewBox="0 0 100 100" enable-background="new 0 0 100 100" xml:space="preserve">
<g>
	<g>
		<path fill="#000000" d="M45.596,71.77L45.596,71.77c-0.602,0-1.509-0.211-2.408-1.211c-2.413-2.687-4.667-5.198-11.274-5.198    c-1.689,0-3.624,0.172-5.748,0.509c-9.483,1.505-9.969,1.505-10.128,1.505c-0.07,0-0.138-0.009-0.204-0.025    c-0.885-0.012-4.721-0.401-5.823-6.069c-0.02-0.054-0.035-0.108-0.043-0.167c-0.009-0.068-0.011-0.141-0.005-0.215l-0.014,0.002    c-0.743-6.743,4.108-7.704,4.157-7.714l0.009,0.046c0.023-0.006,0.048-0.014,0.073-0.02l0.002-0.037    c0.036,0,0.073,0.003,0.109,0.008c1.192-0.302,3.861-0.663,9.786-1.465c11.25-1.524,13.04-5.33,14.935-9.36    c0.603-1.282,1.593-1.999,2.733-1.999c1.355,0,2.609,1.027,2.794,2.286l3.827,26.018c0.104,0.712-0.147,1.502-0.673,2.111    C47.154,71.408,46.386,71.77,45.596,71.77z M31.914,63.775c7.314,0,10.031,3.026,12.427,5.696    c0.429,0.477,0.853,0.714,1.254,0.714l0,0c0.33,0,0.659-0.163,0.904-0.446c0.225-0.262,0.342-0.585,0.304-0.842l-3.827-26.019    c-0.063-0.429-0.612-0.931-1.225-0.931c-0.65,0-1.056,0.573-1.282,1.055c-1.915,4.073-4.067,8.65-16.173,10.289    c-7.061,0.957-9.1,1.276-9.686,1.381c-0.067,0.036-0.142,0.062-0.221,0.077c-0.134,0.026-3.441,0.75-2.864,5.979    c0.002,0.022,0.004,0.045,0.005,0.067c0.005,0.022,0.011,0.043,0.015,0.065c0.839,4.551,3.531,4.906,4.337,4.906    c0.091-0.012,0.186-0.005,0.277,0.015c0.451-0.048,2.305-0.293,9.758-1.477C28.124,63.953,30.142,63.775,31.914,63.775z"/>
		<path fill="#000000" d="M29.42,65.505c-0.387,0-0.726-0.283-0.784-0.677l-1.881-12.785c-0.063-0.434,0.235-0.836,0.669-0.901    c0.433-0.048,0.835,0.237,0.9,0.669l1.881,12.785c0.064,0.434-0.235,0.836-0.669,0.901C29.497,65.502,29.458,65.505,29.42,65.505z    "/>
		<path fill="#000000" d="M15.168,58.692c-0.387,0-0.726-0.283-0.784-0.677c-0.063-0.434,0.235-0.836,0.669-0.901l5.778-0.85    c0.433-0.053,0.835,0.237,0.9,0.669c0.063,0.434-0.235,0.836-0.669,0.901l-5.778,0.85C15.245,58.689,15.206,58.692,15.168,58.692z    "/>
		<path fill="#000000" d="M15.731,62.522c-0.387,0-0.726-0.283-0.783-0.677c-0.064-0.434,0.235-0.836,0.669-0.901l5.778-0.85    c0.434-0.048,0.835,0.237,0.9,0.669c0.063,0.434-0.235,0.836-0.669,0.901l-5.778,0.85C15.809,62.519,15.769,62.522,15.731,62.522z    "/>
		<path fill="#000000" d="M28.763,77.709L28.763,77.709c-1.496,0-2.354-0.935-2.447-1.041L18.05,66.74    c-0.184-0.221-0.234-0.525-0.13-0.794c0.104-0.268,0.345-0.458,0.63-0.499l8.071-1.126c0.272-0.037,0.557,0.073,0.732,0.294    l7.089,8.994c0.141,0.178,0.198,0.409,0.157,0.633c-0.069,0.378-0.069,0.378-3.321,2.598    C30.437,77.416,29.591,77.709,28.763,77.709z M27.522,75.638c0.002,0,0.458,0.485,1.24,0.485c0.503,0,1.048-0.2,1.621-0.592    c1.178-0.804,1.883-1.293,2.303-1.587l-6.297-7.989l-6.209,0.866L27.522,75.638L27.522,75.638z"/>
		<path fill="#000000" d="M57.425,65.692c-0.197,0-0.393-0.073-0.547-0.218c-0.317-0.302-0.33-0.804-0.028-1.121    c2.754-2.893,3.992-6.874,3.397-10.924c-0.592-4.028-3.017-7.591-6.486-9.53c-0.382-0.214-0.519-0.697-0.305-1.079    c0.214-0.384,0.697-0.519,1.079-0.305c3.896,2.177,6.617,6.173,7.281,10.685c0.667,4.534-0.724,8.997-3.816,12.246    C57.843,65.61,57.634,65.692,57.425,65.692z"/>
		<path fill="#000000" d="M51.966,61.997c-0.185,0-0.371-0.063-0.521-0.195c-0.33-0.288-0.364-0.788-0.077-1.12    c1.782-2.043,2.581-4.412,2.249-6.671c-0.334-2.272-1.792-4.317-4.105-5.762c-0.372-0.231-0.485-0.72-0.253-1.092    c0.232-0.373,0.722-0.486,1.092-0.252c2.715,1.694,4.431,4.136,4.835,6.874c0.401,2.725-0.53,5.549-2.622,7.947    C52.406,61.906,52.186,61.997,51.966,61.997z"/>
	</g>
	<g>
		<g>
			<path fill="#000000" d="M80.203,31.31c-0.541,0.16-1.316,0.014-1.316,0.014c1.045-0.341,1.359-0.979,1.359-0.979     c-1.223,0.275-1.623,0.042-1.623,0.042l0,0c-0.279-0.534-0.759-0.963-1.377-1.161c-1.248-0.401-2.584,0.286-2.985,1.534     c-0.044,0.137-0.073,0.275-0.091,0.413l-0.001,0c-3.416-1.434-3.683-3.694-3.683-3.694c-1.666,1.446-0.354,3.113-0.354,3.113     c-0.598-0.147-0.817-0.574-0.817-0.574c-0.704,1.777,0.996,2.79,0.996,2.79c-0.718-0.052-0.968-0.311-0.968-0.311     c0.012,1.695,1.498,2.195,1.498,2.195c-1.821,0.751-3.494-0.103-3.494-0.103l-0.013-0.015c0.778,0.949,1.829,1.693,3.084,2.096     c3.471,1.114,7.187-0.796,8.301-4.267l-0.01-0.003c0.026-0.062,0.051-0.124,0.071-0.189c0.013-0.042,0.022-0.084,0.033-0.125     C79.746,31.849,80.203,31.31,80.203,31.31z"/>
		</g>
		<path fill="#000000" d="M79.829,46.212c-0.177,0-0.353-0.028-0.523-0.084l-17.894-5.745c-0.433-0.138-0.787-0.437-0.995-0.842    c-0.208-0.406-0.246-0.867-0.107-1.301l5.744-17.894c0.282-0.877,1.264-1.386,2.144-1.104l17.895,5.747    c0.433,0.138,0.787,0.438,0.995,0.842c0.208,0.406,0.246,0.867,0.107,1.301l-5.744,17.895    C81.224,45.735,80.572,46.212,79.829,46.212z M67.715,20.752l-0.15,0.077L61.82,38.725l0.077,0.15l17.932,5.751    c0.043,0,0.094-0.026,0.113-0.084l5.745-17.894c0.017-0.054-0.023-0.133-0.076-0.15L67.715,20.752z"/>
	</g>
	<g>
		<path fill="#000000" d="M24.841,33.845c-0.903,0-1.651-0.706-1.702-1.609l-1.058-18.766c-0.053-0.937,0.666-1.744,1.604-1.798    l18.766-1.058c0.002,0,0.004,0,0.006,0c0.997,0,1.742,0.706,1.792,1.607l1.058,18.763c0.053,0.937-0.666,1.745-1.604,1.799    L24.841,33.845z M42.547,12.198l-18.77,1.058c-0.065,0.005-0.116,0.06-0.113,0.125l1.058,18.766    c0.004,0.062,0.057,0.113,0.119,0.113v0.793l0.007-0.793l18.764-1.058c0.065-0.005,0.116-0.06,0.112-0.127l-1.058-18.764    C42.663,12.247,42.611,12.198,42.547,12.198z"/>
		<path fill="#000000" d="M40.171,17.317l-0.119-2.105c0,0-0.819,0.046-1.871,0.106c-1.053,0.059-2.99,1.07-2.809,4.275    c0.008,0.149,0.017,0.307,0.026,0.468l-1.822,0.103l0.125,2.212l1.822-0.103c0.172,3.057,0.366,6.491,0.366,6.491l2.573-0.145    c0,0-0.207-3.676-0.366-6.491l1.686-0.095l-0.125-2.212l-1.686,0.095c-0.022-0.385-0.008-0.137-0.016-0.289    C37.861,17.977,38.589,17.406,40.171,17.317z"/>
	</g>
	<g>
		<path fill="#000000" d="M78.439,89.782c-0.233,0-0.461-0.047-0.675-0.139l-17.251-7.461c-0.862-0.373-1.261-1.378-0.888-2.241    l7.46-17.25c0.362-0.839,1.395-1.253,2.241-0.889l17.25,7.459c0.418,0.181,0.741,0.513,0.909,0.937    c0.167,0.423,0.16,0.887-0.02,1.304l-7.459,17.251C79.733,89.379,79.119,89.782,78.439,89.782z M68.697,63.258l-0.156,0.062    l-7.46,17.25c-0.026,0.06,0.002,0.13,0.062,0.156l17.297,7.47c0.036,0,0.088-0.019,0.112-0.073l7.459-17.25    c0.022-0.053-0.011-0.135-0.062-0.156L68.697,63.258z"/>
		<g>
			<path fill="#000000" d="M78.429,73.265l-6.833-2.955c-1.032-0.446-2.231,0.028-2.677,1.061l-1.539,3.559     c-0.446,1.032,0.029,2.231,1.061,2.677l6.833,2.955c1.032,0.446,2.231-0.028,2.677-1.061l1.539-3.559     C79.936,74.91,79.461,73.711,78.429,73.265z M71.485,76.535l1.415-3.272l2.405,2.953L71.485,76.535z"/>
		</g>
	</g>
</g>
</svg>