<svg xmlns="http://www.w3.org/2000/svg" xmlns:xlink="http://www.w3.org/1999/xlink" version="1.1" id="Layer_1" x="0px" y="0px" width="90px" height="90px" viewBox="0 0 90 90" enable-background="new 0 0 90 90" xml:space="preserve">
<path fill="#000000" d="M81.916,5.127l-8.667,6.084l-4.333-1.334L45.898,26.956l1.833,2.566L46.6,30.33l-1.819-2.545l-1.252,0.929  l1.827,2.558l-1.131,0.808l-1.813-2.537l-1.281,0.951l1.851,2.591l-1.131,0.808l-1.837-2.57l-2.097,1.556l0.667,2.834  c-8,6-8.834,12.333-8.834,12.333l-3-0.166l-4.666,17.166l6.5,2.334c0,0,6-14.334,7-15.167c1-0.833-2-1.667-2-1.667  c2.167-7.334,8-10.833,8-10.833l5,0.333l16.833-9l1.167-3.833l11.458-6.834l0.75-4.687l8.292-6.146L81.916,5.127z"/>
<polygon fill="#000000" points="47.122,40.693 57.992,34.941 58.215,37.437 49.675,42.969 "/>
<path fill="#000000" d="M14.583,57.211l5.833,6l-0.167,3.5l2.667,0.833l0.333,4l3-3.166l2.5,1.333l1.834-3l11-8.5l-0.834,7.833  c0,0,24.001-7,22.834-6.5c-1.167,0.5-13.5,9.167-10.5,8.667s31.333-1.167,31.333-1.167l-26.333,5.334l25.833,6.166l-39.333-0.666  l-1,5.666l-6.5-5.166l-6.667,5l-2.5-4.334l-10,4.667l-0.667-4.167c0,0-10.666,4.5-10.166,4.167c0.5-0.333,9.5-11,9-11  S4.917,69.878,4.917,69.878l9.667-4V57.211z"/>
</svg>