<svg xmlns="http://www.w3.org/2000/svg" xmlns:xlink="http://www.w3.org/1999/xlink" version="1.1" id="Layer_1" x="0px" y="0px" width="100px" height="100px" viewBox="0 0 100 100" enable-background="new 0 0 100 100" xml:space="preserve">
<g>
	<path d="M40.348,21.742l-7.203,7.799l-17.868,4.704l-2.898-2.899l-2.747,3.619l0.403,3.494l3.351-1.886l0.413,3.563l3.358-1.816   l0.406,3.496l3.355-1.826l0.428,3.494l3.328-1.811l0.437,3.508l3.328-1.83l0.434,3.508l3.331-1.83l0.417,3.5l3.348-1.82l0.417,3.5   l3.346-1.823l0.429,3.506l3.333-1.829l0.42,3.502l3.342-1.824l0.428,3.5l3.341-1.817l0.447,3.513l3.321-1.834l0.431,3.507   l3.334-1.828l0.438,3.553l3.344-1.82l0.428,3.459l3.334-1.789l0.442,3.474l3.347-1.822l0.41,3.496l3.34-1.817l0.437,3.549   l3.333-1.814l0.423,3.441l3.339-1.778l0.424,3.456l3.336-1.793l0.425,3.471l3.337-1.808l0.418,3.482l3.351-1.821l0.429,3.506   l2.477-1.347l4.479-9.613L40.348,21.742z M93.755,67.146c-0.784,0-1.42-0.636-1.42-1.42s0.636-1.42,1.42-1.42   s1.419,0.636,1.419,1.42S94.539,67.146,93.755,67.146z"/>
	<path d="M20.795,1.71c-3.617-3.087-4.26,1.893-2.73,4.041c1.654,2.468-2.84,3.241-5.133,3.75c-3.568,0.365-12.58,9.158-12.58,9.158   L15.442,33.75l17.495-4.606l8.818-9.547C41.755,19.597,24.412,4.796,20.795,1.71z M28.88,19.467L17.2,24.912   c-4.942,2.304-6.664-3.721-2.922-5.51l11.68-5.444C30.899,11.654,32.623,17.679,28.88,19.467z"/>
</g>
</svg>